<svg xmlns="http://www.w3.org/2000/svg" viewBox="0 0 341.0 288.0" data-vw="341.0" data-vh="288.0" preserveAspectRatio="xMidYMid meet"><path d="M177.907,179.154v-0.85c0.889,-0.542 1.407,-1.158 1.407,-1.872a1.994,1.994 0,0 0,-0.84 -1.503c0.476,-0.36 0.773,-0.908 0.815,-1.502 0,-0.702 -0.604,-1.072 -1.382,-1.158L177.907,173.5a0.295,0.295 0,0 1,0 0.16v-2.082c0,-0.554 -0.47,-1.034 -1.234,-1.44L176.673,158.744L139.126,158.744v11.393c-0.79,0.407 -1.235,0.887 -1.235,1.441v4.927,-1.835a0.717,0.717 0,0 0,-0.37 0.135,2.093 2.093,0 0,0 -1.012,1.65c0.027,0.502 0.259,0.97 0.642,1.294 -0.378,0.34 -0.593,0.823 -0.593,1.33 0.003,0.203 0.045,0.404 0.124,0.591C134.3,180.731 132.905,181.975 132.905,183.305v5.764c0,1.466 1.679,2.82 4.517,3.942 0.1,2.143 0.284,5.432 0.618,8.93 1.678,18.118 4.344,21.222 19.909,21.222 15.564,0 18.205,-3.178 19.835,-21.247 0.333,-3.498 0.518,-6.787 0.617,-8.93 2.839,-1.12 4.517,-2.463 4.517,-3.941L182.918,183.28c0,-1.552 -1.827,-2.98 -5.011,-4.126zM137.83,178.33L137.83,178.317v0.012z" fill="none" stroke="#808084" stroke-width="1.0" fill-rule="evenodd"/><path d="M137.25,190.547s0.135,5.407 0.703,11.369c1.679,18.118 4.345,21.222 19.91,21.222 15.564,0 18.291,-3.153 19.92,-21.222 0.568,-5.962 0.704,-11.369 0.704,-11.369" fill="#e6e6e6" stroke="#808084" stroke-width="0.45"/><path d="M144.063,212.915a5.43,5.43 0,0 0,5.665 3.88h16.305a5.43,5.43 0,0 0,5.666 -3.88" fill="@drawable/$svg_apply_sensor_tutorial_4_v3__0" stroke="#808084" stroke-width="0.5"/><path d="M154.11,223.495h4.715l13.552,-13.82 1.901,-6.897 0.222,-6.922 -6.788,9.866 -12.12,15.15z" fill="#808084" fill-rule="evenodd"/><path d="M157.875,175.237c-6.937,0 -20.045,-0.776 -20.045,-3.695 0,-2.919 13.108,-3.695 20.045,-3.695 6.936,0 20.032,0.776 20.032,3.695 0,2.92 -13.108,3.695 -20.032,3.695zM157.875,168.562c-12.158,0 -18.786,1.86 -18.786,2.82 0,0.96 6.628,2.82 18.786,2.82 12.157,0 18.773,-1.871 18.773,-2.82 0,-0.948 -6.665,-2.82 -18.773,-2.82z" fill="#ececed" stroke="#808084" stroke-width="0.43" stroke-linecap="round" stroke-linejoin="round"/><path d="M137.83,185.35L137.83,171.518" fill="none" stroke="#231f20" stroke-width="0.22" fill-rule="evenodd"/><path d="M177.907,185.35L177.907,171.518" fill="none" stroke="#808084" stroke-width="0.22" fill-rule="evenodd"/><path d="M132.831,189.045a25.044,6.898 0,1 0,50.088 0a25.044,6.898 0,1 0,-50.088 0z" fill="#73c2ff" stroke="#3777b4" stroke-width="0.42"/><path d="M132.831,183.28a25.044,6.898 0,1 0,50.088 0a25.044,6.898 0,1 0,-50.088 0z" fill="#bfbfc1" stroke="#808084" stroke-width="0.42"/><path d="M139.126,158.683v12.7c0,0.948 6.628,2.82 18.786,2.82 12.157,0 18.773,-1.872 18.773,-2.82L176.685,158.682L139.125,158.682z" fill="#f5b335" stroke="#bf8c2a" stroke-width="0.43"/><path d="M178.549,183.711c-3.42,-2.39 -14.392,-3.079 -20.674,-3.079 -6.283,0 -17.28,0.69 -20.687,3.08h-1.05v2.044c0,3.695 14.22,4.68 21.737,4.68 7.516,0 21.723,-0.973 21.723,-4.68v-2.045h-1.05z" fill="#ececed" stroke="#808084" stroke-width="0.48" stroke-linecap="round" stroke-linejoin="round"/><path d="M157.875,188.835c-7.517,0 -21.736,-1.404 -21.736,-5.124 0,-3.72 14.219,-4.68 21.736,-4.68 7.516,0 21.723,0.973 21.723,4.68 0,3.708 -14.207,5.124 -21.723,5.124z" fill="#ececed" stroke="#808084" stroke-width="0.48" stroke-linecap="round" stroke-linejoin="round"/><path d="M157.875,175.237c-6.937,0 -20.045,-0.776 -20.045,-3.695v11.369c0,2.241 8.973,4.052 20.045,4.052 11.071,0 20.032,-1.81 20.032,-4.052L177.907,171.542c-0.012,2.87 -13.108,3.695 -20.032,3.695z" fill="#ececed" stroke="#808084" stroke-width="0.43" stroke-linecap="round" stroke-linejoin="round"/><path d="M157.875,196.14c-8.566,0 -16.108,-1.393 -20.625,-3.511l0.271,3.227c4.555,2.045 11.96,3.387 20.354,3.387 8.393,0 15.786,-1.342 20.34,-3.387l0.272,-3.227c-4.517,2.118 -12.059,3.51 -20.612,3.51z" fill="#808084"/><path d="M137.101,190.99c4.493,2.169 12.121,3.585 20.774,3.585 8.652,0 16.267,-1.416 20.76,-3.584" fill="none" stroke="#3777b4" stroke-width="0.45" fill-rule="evenodd"/><path d="M157.875,190.178C144.038,190.178 132.819,187.086 132.819,183.28v5.765c0,3.806 11.22,6.897 25.056,6.897s25.043,-3.091 25.043,-6.897L182.918,183.28c0,3.806 -11.22,6.898 -25.043,6.898z" fill="#e6e6e6" stroke="#808084" stroke-width="0.42"/><path d="M139.126,213.506l0.271,3.104c0,3.264 6.567,5.974 15.207,6.528" fill="none" stroke="#808084" stroke-width="0.45" fill-rule="evenodd"/><path d="M157.875,183.933c-7.406,0 -21.403,-1.035 -21.403,-4.927 0.009,-0.67 0.363,-1.29 0.938,-1.638 0.309,-0.222 0.407,0.505 0.407,0.505v1.133c0,1.232 6.826,3.51 20.045,3.51a0.69,0.69 0,0 1,0 1.368l0.013,0.05z" fill="#ececed" stroke="#808084" stroke-width="0.43" stroke-linecap="round"/><path d="M177.907,174.548a0.334,0.334 0,0 1,0.173 0.073,2.254 2.254,0 0,1 1.234,1.811c0,3.56 -12.824,4.927 -21.44,4.927 -8.615,0 -21.451,-1.306 -21.451,-4.927a2.093,2.093 0,0 1,1.012 -1.65,0.717 0.717,0 0,1 0.37,-0.136v1.835c0,1.232 6.838,3.486 20.045,3.486s20.032,-2.29 20.032,-3.523l0.025,-1.896z" fill="#ececed" stroke="#808084" stroke-width="0.43"/><path d="M177.907,172.269c0.778,0.086 1.382,0.456 1.382,1.158 0,1.54 -2.135,2.746 -6.578,3.695 -4.881,0.94 -9.84,1.42 -14.812,1.429h-1.802c-3.073,0 -6.048,-0.173 -8.702,-0.444a0.67,0.67 0,0 1,-0.475 -1.056,0.67 0.67,0 0,1 0.611,-0.274c3.44,0.345 6.899,0.489 10.356,0.431 4.888,0.002 9.764,-0.46 14.564,-1.38 4.543,-0.973 5.53,-2.056 5.53,-2.389" fill="#ececed" stroke="#808084" stroke-width="0.43" stroke-linecap="round"/><path d="M143.619,170.73L143.619,163.584L141.63,163.204v7.156l-0.913,2.217 3.814,0.727z" fill="#595959"/><path d="M153.64,174.03v-1.515c0,-0.755 0.614,-1.367 1.371,-1.367h5.715c0.756,0 1.37,0.612 1.37,1.367v1.515" fill="#bf8c2a" stroke="#595959" stroke-width="0.56"/><path d="M160.417,174.203L155.32,174.203l1.221,-3.055h2.654zM171.896,170.73L171.896,163.584l1.987,-0.381v7.156l0.914,2.217 -3.814,0.727z" fill="#595959"/><path d="M139.126,158.683v12.7c0,0.948 6.628,2.82 18.786,2.82 12.157,0 18.773,-1.872 18.773,-2.82L176.685,158.682L139.125,158.682z" fill="none" stroke="#808084" stroke-width="0.43" fill-rule="evenodd"/><path d="M211,200.957s-3.543,14.796 -6.011,19.938c-2.469,5.142 -7.912,12.33 -9.665,21.64 2.21,4.513 6.172,11.171 6.172,11.171l8.467,12.33 2.123,-38.113 0.481,-18.125 -1.567,-8.84z" fill="#e0e3e4" fill-rule="evenodd"/><path d="M212.814,155.865l-13.688,29.79 -6.036,12.392M153.89,251.869l1.9,4.562 1.642,6.547 4.27,26.19" fill="none" stroke="#808084" stroke-width="1.0" stroke-linecap="round" stroke-linejoin="round" fill-rule="evenodd"/><path d="M154.543,253.435l2.234,0.777 1.235,1.233 3.011,1.812 5.518,0.567 8.146,-2.947 7.517,-3.23 2.32,-0.42 2.753,-1.467 5.517,-11.097 2.468,3.86 7.665,13.674 6.419,9.112 -0.914,23.847h-21.34s-11.38,-20.025 -14.269,-22.49a25.412,25.412 0,0 0,-9.664 -4.723c-2.568,-0.617 -6.554,-1.838 -6.554,-1.838l-2.062,-6.67z" fill="#e0e3e4" fill-rule="evenodd"/><path d="M192.991,239.095l5.073,10.357 4.925,8.089 6.937,9.852" fill="none" stroke="#808084" stroke-width="1.0" stroke-linecap="round" stroke-linejoin="round" fill-rule="evenodd"/><path d="M341.185,32.87l-10.051,-8.637c-4.625,-3.985 -9.953,-10.845 -11.815,-15.25a68.7,68.7 0,0 1,-3.971 -19.112l-0.074,-1.234a91.612,91.612 0,0 1,1.578 -20.654,113.939 113.939,0 0,1 6.623,-19.124 77.753,77.753 0,0 0,5.55 -16.336l1.085,-6.786" fill="none" stroke="#808084" stroke-width="1.5" stroke-linecap="round" stroke-linejoin="round" fill-rule="evenodd"/><path d="M214.512,152.687l-3.564,28.378 -0.777,22.418 2.689,14.708v9.87l-2.997,51.82 -1.234,12.537h136.996l0.839,-260.338s-8.867,-6.835 -13.566,-10.882c-4.7,-4.047 -8.856,-7.243 -8.856,-7.243s-1.233,4.529 -3.527,6.54a47.378,47.378 0,0 1,-15.959 9.007c-7.548,2.332 -18.808,5.996 -18.808,5.996s16.613,-0.333 22.2,1.715 15.108,11.314 19.363,23.443c2.257,6.44 3.243,26.391 2.466,35.003 -0.777,8.612 -5.093,32.894 -7.4,38.397 -2.306,5.503 -19.153,18.507 -23.889,19.297 -4.736,0.79 -22.791,2.468 -27.75,-3.294 -4.957,-5.762 -5.968,-7.255 -5.968,-7.255l-32.621,8.106 -17.637,1.777z" fill="#2096f3"/><path d="M213.057,162.224s17.02,9.217 34.607,13.893 36.826,8.723 39.465,9.402c5.415,1.431 10.262,-0.642 7.265,-2.135 -2.997,-1.493 -30.007,-15.003 -31.66,-16.261 -1.652,-1.259 -2.565,-3.702 -0.258,-5.417 2.306,-1.715 18.253,-1.974 24.666,-3.245 6.413,-1.27 14.8,-5.49 14.8,-5.49a29.588,29.588 0,0 1,-7.4 1.098c-6.648,-0.185 -17.378,-0.642 -20.017,-1.58 -3.91,-1.394 -9.743,-8.772 -9.743,-8.772l-28.194,7.193 -22.322,4.183 -1.21,7.131z" fill="#1d88e5"/><path d="M187.22,20.408s9.866,4.343 13.393,4.652c3.527,0.308 28.884,-4.22 33.607,-5.552a115.164,115.164 0,0 0,18.5 -7.712c3.182,-1.95 12,-12.338 13.505,-14.337 1.505,-1.999 3.453,-8.18 3.453,-8.18a71.924,71.924 0,0 1,-0.826 10.796c-0.814,4.318 -7.19,15.855 -8.83,19.038 -1.641,3.183 -3.59,11.721 -3.294,14.584 0.296,2.862 7.092,22.517 7.092,22.517l2.775,10.796 -9.694,0.839 -4.49,-8.637 -4.723,-3.504 -7.61,-12.955 -3.49,-8.02 -3.7,-3.282 -11.926,-1.234 -22.914,0.173 -8.745,-4.491 -2.084,-5.49zM184.173,0.79a8.543,8.543 0,0 1,4.107 0c1.517,0.617 3.86,4.936 4.082,6.096 0.222,1.16 1.233,4.392 0,4.392s-4.514,-2.875 -4.514,-2.875L184.173,0.791z" fill="#e0e3e4"/><path d="M210.948,181.028s3.083,21.32 5.698,25.367c2.614,4.047 11.47,11.524 21.373,17.928 9.904,6.403 38.233,24.417 37.826,26.317 -0.407,1.9 -3.084,2.887 -6.167,2.887 -3.083,0 -18.5,-4.43 -23.433,-6.379 -4.933,-1.949 -26.7,-14.497 -29.192,-16.224l-4.193,-2.9v-9.87l-2.689,-14.708 0.777,-22.418zM343.985,247.519s-23.433,-9.007 -27.947,-11.018c-4.514,-2.012 -13.048,-7.663 -20.288,-11.019s-5.167,3.862 -2.306,7.403a117.847,117.847 0,0 0,22.31 20.075c8.4,5.786 28.231,16.114 28.231,16.114v-21.555zM211.28,255.316s24.223,14.041 26.74,15.892c2.515,1.85 6.499,3.702 5.993,5.318 -0.506,1.616 -12.148,1.382 -14.985,0.247 -2.836,-1.136 -18.598,-6.799 -18.598,-6.799l0.85,-14.658z" fill="#1d88e5"/><path d="M258.171,70.304l-3.7,-7.168a19.493,19.493 0,0 0,-4.415 -5.688,22.663 22.663,0 0,1 -4.612,-5.577l-3.108,-5.293c-1.234,-2.11 -3.034,-5.639 -3.996,-7.847a20.137,20.137 0,0 0,-3.59 -5.651,13.624 13.624,0 0,0 -6.264,-2.098l-3.096,-0.32c-2.467,-0.26 -6.413,-0.445 -8.855,-0.42l-14.072,0.099a21.44,21.44 0,0 1,-8.387 -1.987l-0.85,-0.432a12.84,12.84 0,0 1,-5.18 -4.812,14.305 14.305,0 0,1 -1.234,-4.429c0,-0.9 0.234,-3.59 0.518,-5.96a17.28,17.28 0,0 0,-1.332 -8.118,19.894 19.894,0 0,1 -1.85,-4.935 6.269,6.269 0,0 1,1.406 -2.9l1.418,-1.776" fill="none" stroke="#808084" stroke-width="1.5" stroke-linecap="round" stroke-linejoin="round" fill-rule="evenodd"/><path d="M282.96,139.04l-46.372,11.87s-26.59,5.269 -37.295,6.256c-10.705,0.987 -62.775,2.936 -62.775,2.936s-39.306,0.26 -54.82,-1.234c-15.516,-1.493 -49.062,-8.192 -55.08,-10.759 -5.735,-2.467 -19.733,-7.477 -19.733,-7.477a5.921,5.921 0,0 1,-2.985 -2.924l-2.54,-5.305a6.295,6.295 0,0 1,-0.593 -3.492l2.06,-17.705s0.79,-61.593 2.17,-75.042C6.38,22.716 18.244,-52.09 18.244,-52.09l50.048,-2.172 -0.481,16.472s3.342,52.092 4.563,61c1.221,8.908 6.315,22.345 7.869,31.734 1.554,9.39 4.575,21.938 4.575,21.938s29.23,-7.81 38.517,-9.637c9.286,-1.826 44.756,-5.293 44.756,-5.293s21.929,-1.888 26.307,-2.59c4.378,-0.704 32.572,-16.435 39.984,-18.508a187.393,187.393 0,0 1,23.95 -4.504c7.894,-1.135 12.013,-1.233 24.667,-1.64a98.193,98.193 0,0 1,23.063 2.072" fill="#ffffff" stroke="#808084" stroke-width="1.5" stroke-linecap="round" stroke-linejoin="round"/><path d="M199.232,121.496c-4.292,-2.332 -3.811,-3.998 1.06,-3.702l33.719,1.974a54.627,54.627 0,0 0,17.266 -2.332l46.36,-15.694a33.534,33.534 0,0 0,13.715 -9.982l12.456,-16.767c2.91,-3.924 5.328,-3.134 5.365,1.752l0.136,16.558a95.413,95.413 0,0 1,-1.826 17.557l-3.7,16.953a29.614,29.614 0,0 1,-8.818 14.25l-8.152,6.577a27.902,27.902 0,0 1,-15.799 5.293l-8.559,-0.272c-4.933,-0.148 -10.557,-2.64 -12.629,-5.54 -2.072,-2.899 -7.61,-4.231 -12.333,-2.948l-12.333,3.356c-4.711,1.234 -12.506,2.986 -17.328,3.8l-19.733,3.319c-4.822,0.814 -12.752,1.653 -17.636,1.888l-45.028,2.097c-4.872,0.235 -12.864,0.333 -17.748,0.21l-37,-0.839a166.12,166.12 0,0 1,-17.722 -1.567l-9.644,-1.493c-4.822,-0.753 -12.198,-1.678 -16.39,-2.048a70.46,70.46 0,0 1,-15.898 -3.936l-17.834,-7.02c-4.55,-1.79 -9.237,-5.269 -10.434,-7.737 -1.196,-2.467 -1.714,-8.464 -1.147,-13.313l0.222,-1.9c0.555,-4.849 2.023,-4.935 3.244,-0.222l0.456,1.777a22.787,22.787 0,0 0,10.101 12.684l0.333,0.172a66.715,66.715 0,0 0,16.65 5.54l18.647,3.085c4.823,0.79 5.205,-0.383 0.864,-2.603l-2.183,-1.11c-4.354,-2.234 -3.91,-3.998 0.974,-3.937l45.731,0.58c4.933,0.062 5.192,1.653 0.69,3.541l-3.674,1.542c-4.502,1.9 -4.194,3.356 0.69,3.258l82.385,-1.777a148.332,148.332 0,0 0,17.637 -1.678l22.027,-3.701c4.81,-0.815 5.241,-3.393 0.95,-5.725l-18.13,-9.92z" fill="#e0e3e4"/><path d="M84.817,76.88s-9.175,3.53 -11.482,3.53a7.177,7.177 0,0 1,-6.166 -3.702c-1.394,-2.468 -1.85,-10.08 -1.85,-19.951 0,-9.87 4.538,-68.712 4.538,-68.712L73.274,34.5l5.858,15.163 5.685,27.219z" fill="#e0e3e4"/><path d="M214.512,154.908l-3.564,26.12 -0.777,22.418 2.689,14.708v9.87l-2.997,51.82 -1.234,12.536h136.996l0.839,-260.337s-8.867,-6.835 -13.566,-10.882c-4.7,-4.047 -8.856,-7.206 -8.856,-7.206s-1.233,4.529 -3.527,6.54a47.378,47.378 0,0 1,-15.959 9.007c-7.548,2.332 -18.919,5.206 -18.919,5.206s16.724,0.457 22.274,2.468c5.55,2.011 15.108,11.314 19.363,23.443 2.257,6.44 3.243,26.391 2.466,35.003 -0.777,8.612 -5.093,32.894 -7.4,38.397 -2.306,5.503 -19.153,18.507 -23.889,19.297 -4.736,0.79 -22.791,2.468 -27.75,-3.294 -4.957,-5.762 -5.08,-6.367 -5.08,-6.367l-29.859,7.638 -21.25,3.615z" fill="none" stroke="#1d88e5" stroke-width="1.5" stroke-linecap="round" stroke-linejoin="round" fill-rule="evenodd"/><path d="M282.96,139.04l-46.372,11.87s-26.59,5.269 -37.295,6.256c-10.705,0.987 -62.775,2.936 -62.775,2.936s-39.306,0.26 -54.82,-1.234c-15.516,-1.493 -49.062,-8.192 -55.08,-10.759 -5.735,-2.467 -19.733,-7.477 -19.733,-7.477a5.921,5.921 0,0 1,-2.985 -2.924l-2.54,-5.305a6.295,6.295 0,0 1,-0.593 -3.492l2.06,-17.705s0.79,-61.593 2.17,-75.042C6.38,22.716 18.244,-52.09 18.244,-52.09l50.048,-2.172 -0.481,16.472s3.342,52.092 4.563,61c1.221,8.908 6.315,22.345 7.869,31.734 1.554,9.39 4.575,21.938 4.575,21.938s29.23,-7.81 38.517,-9.637c9.286,-1.826 44.756,-5.293 44.756,-5.293s21.929,-1.888 26.307,-2.59c4.378,-0.704 32.572,-16.435 39.984,-18.508a187.393,187.393 0,0 1,23.95 -4.504c7.894,-1.135 12.013,-1.233 24.667,-1.64a98.193,98.193 0,0 1,23.063 2.072" fill="none" stroke="#808084" stroke-width="1.5" stroke-linecap="round" stroke-linejoin="round" fill-rule="evenodd"/><path d="M138.473,206.533a8.148,8.148 0,0 1,-3.34 4.666c-2.941,2.197 -4.965,1.814 -5.784,1.58 -0.82,-0.235 -3.513,-3 -4.159,-3.851 -0.645,-0.852 -1.154,-6.172 -1.241,-7.258a4.527,4.527 0,0 1,1.241 -3.357c0.758,-0.852 3.141,-3.333 4.258,-3.407 1.118,-0.074 7.598,-0.296 7.598,-0.296" fill="none" stroke="#808084" stroke-width="1.0" stroke-linecap="round" stroke-linejoin="round" fill-rule="evenodd"/><path d="M125.563,209.372c-0.36,-3.222 1.018,-5.357 3.016,-7.591a7.17,7.17 0,0 1,4.494 -2.641M130.814,213.149l-0.348,10.33" fill="none" stroke="#808084" stroke-width="1.0" stroke-linecap="round" stroke-linejoin="round" fill-rule="evenodd"/><path d="M138.324,208.039l1.08,5.172 -8.876,6.492v-5.172l1.155,-2.234h-3.079l-2.309,-2.172a9.204,9.204 0,0 0,4.966 -1.136c2.942,-1.444 6.69,-6.517 6.69,-6.517l0.373,5.567z" fill="#e0e3e4" fill-rule="evenodd"/><path d="M163.028,246.61l1.638,-3.703 6.84,-9.874 5.55,-6.542 4.257,-6.171s7.548,-8.282 8.441,-9.158a47.249,47.249 0,0 0,3.998 -5.839,8.343 8.343,0 0,0 1.241,-4.937c-0.236,-2.036 -4.047,-4.221 -5.797,-4.37 -1.75,-0.147 -6.108,4.469 -7.846,5.728 -1.738,1.259 -7.113,5.789 -7.113,5.789l-7.386,8.097 -18.149,17.761s0.633,-4.727 2.073,-6.48c1.44,-1.753 5.363,-6.653 5.363,-6.653l5.127,-7.405 8.863,-10.307s3.501,-4.579 4.209,-5.776a4.082,4.082 0,0 0,-1.118 -4.616c-1.402,-1.37 -3.078,-1.74 -5.636,-1.716 -2.557,0.025 -8.13,5.591 -10.415,7.295a63.45,63.45 0,0 1,-6.69 4.937c-2.695,1.543 -8.12,8.023 -8.12,8.023s-9.347,7.776 -10.588,9.072c-1.242,1.296 -1.465,7.405 -2.744,10.047 -1.278,2.641 -2.644,7.344 -1.241,9.504a10.068,10.068 0,0 0,6.505 4.48c2.482,0.309 3.587,0.309 4.965,1.074 1.378,0.765 1.862,2.629 2.334,4.172 0.472,1.543 3.724,3.703 5.537,4.69 1.812,0.988 4.431,-0.457 6.89,-0.26a4.713,4.713 0,0 1,4.07 2.087c1.031,1.234 5.227,2.27 7.45,2.468 2.221,0.198 4.555,-1.11 7.038,-2.011 2.483,-0.901 9.012,-4.32 10.812,-4.407a7.87,7.87 0,0 0,4.184 -1.703c1.328,-0.852 4.791,-9.035 5.549,-11.109 0.41,-1.135 0.434,-4.456 0.608,-7.776 0.149,-2.752 0.534,-5.505 0,-7.06 -1.043,-3.444 -5.934,-9.874 -5.934,-9.874" fill="#ffffff" stroke="#808084" stroke-width="1.0" stroke-linecap="round" stroke-linejoin="round" fill-rule="evenodd"/><path d="M174.312,247.03a12.667,12.667 0,0 1,2.06 -4.468c1.44,-1.79 6.07,-7.591 7.35,-9.085a12.292,12.292 0,0 0,2.308 -8.047l-1.08,-8.504" fill="none" stroke="#808084" stroke-width="1.0" stroke-linecap="round" stroke-linejoin="round" fill-rule="evenodd"/><path d="M153.928,223.134l-3.674,4.703 -1.54,5.64 10.23,-9.997zM187.396,213.655l5.474,8.516 0.733,2.987 -0.646,12.405 -4.332,10.405 -3.03,2.469 -3.289,0.851 -5.437,2.259 -10.34,4.332 -8.467,-2.258s8.54,-1.642 11.384,-2.95c2.842,-1.309 4.965,-6.32 4.965,-6.32l1.055,-3.234 4.966,-6.838c-0.099,-2.26 0.022,-4.526 0.36,-6.764 0.558,-2.888 -0.882,-8.158 -0.882,-8.158l7.486,-7.702z" fill="#e0e3e4" fill-rule="evenodd"/><path d="M127.015,233.798c-0.683,2.765 4.258,5.431 5.996,5.555a6.218,6.218 0,0 1,5.214 2.641,12.723 12.723,0 0,1 2.396,4.678s0.186,-2.135 -4.668,-2.827c-4.854,-0.69 -8.243,-3.567 -8.69,-4.937 -0.446,-1.37 0,-6.122 -0.248,-5.11zM141.862,249.745l5.313,4.11 2.483,-0.148 6.666,0.149s0.36,-0.457 -1.663,-2c-2.024,-1.543 -3.625,-1.234 -6.083,-1.136 -2.458,0.1 -5.276,0.062 -6.716,-0.975zM148.02,233.453c-2.483,-2.37 -2.781,-3.703 -2.93,-5.431 -0.15,-1.728 2.296,-5.888 4.332,-7.912s5.239,-5.801 7.535,-7.134a17.325,17.325 0,0 0,5.313 -5.48,32.934 32.934,0 0,1 4.345,-6.357 24.65,24.65 0,0 0,4.506 -4.937c0.82,-1.37 -0.434,-4.58 -0.21,-4.801 1.24,-1.235 4.009,4.381 4.009,4.381l-5.971,7.406 -8.243,9.726 -10.837,14.812 -1.85,5.727z" fill="#e0e3e4"/><path d="M162.804,246.758c-1.998,-2.727 -1.874,-5.147 -0.82,-7.11a40.375,40.375 0,0 1,4.966 -7.269c1.341,-1.234 3.402,-1.963 4.68,-3.505 1.279,-1.543 1.118,-2.358 2.942,-5.061 1.825,-2.703 5.897,-6.171 7.995,-8.17a80.385,80.385 0,0 0,8.69 -12.097c0.505,-0.774 0.921,-1.602 1.24,-2.469 0.286,-1.061 -1.44,-4.628 -1.44,-4.628l3.936,2.975 -0.372,4.22 -4.507,7.147 -3.004,3.123 -12.612,15.663 -9.124,11.948 -2.57,5.233z" fill="#e0e3e4" fill-rule="evenodd"/><path d="M174.312,247.03a12.667,12.667 0,0 1,2.06 -4.468c1.44,-1.79 6.07,-7.591 7.35,-9.085a12.292,12.292 0,0 0,2.308 -8.047l-1.08,-8.504M138.374,206.916a8.645,8.645 0,0 1,-3.24 4.283c-2.942,2.197 -4.966,1.814 -5.785,1.58 -0.82,-0.235 -3.513,-3 -4.159,-3.851 -0.645,-0.852 -1.154,-6.172 -1.241,-7.258a4.527,4.527 0,0 1,1.241 -3.357c0.758,-0.852 3.141,-3.333 4.258,-3.407 1.118,-0.074 7.598,-0.296 7.598,-0.296M130.814,213.149l-0.348,10.33" fill="none" stroke="#808084" stroke-width="1.0" stroke-linecap="round" stroke-linejoin="round" fill-rule="evenodd"/><path d="M163.028,246.61l1.638,-3.703 6.84,-9.874 5.55,-6.542 4.257,-6.171s7.548,-8.282 8.441,-9.158a47.249,47.249 0,0 0,3.998 -5.839,8.343 8.343,0 0,0 1.241,-4.937c-0.236,-2.036 -4.047,-4.221 -5.797,-4.37 -1.75,-0.147 -6.108,4.469 -7.846,5.728 -1.738,1.259 -7.113,5.789 -7.113,5.789l-7.386,8.097 -18.149,17.761s0.633,-4.727 2.073,-6.48c1.44,-1.753 5.363,-6.653 5.363,-6.653l5.127,-7.405 8.863,-10.307s3.501,-4.579 4.209,-5.776a4.082,4.082 0,0 0,-1.118 -4.616c-1.402,-1.37 -3.078,-1.74 -5.636,-1.716 -2.557,0.025 -8.13,5.591 -10.415,7.295a63.45,63.45 0,0 1,-6.69 4.937c-2.695,1.543 -8.12,8.023 -8.12,8.023s-9.347,7.776 -10.588,9.072c-1.242,1.296 -1.465,7.405 -2.744,10.047 -1.278,2.641 -2.644,7.344 -1.241,9.504a10.068,10.068 0,0 0,6.505 4.48c2.482,0.309 3.587,0.309 4.965,1.074 1.378,0.765 1.862,2.629 2.334,4.172 0.472,1.543 3.724,3.703 5.537,4.69 1.812,0.988 4.431,-0.457 6.89,-0.26a4.713,4.713 0,0 1,4.07 2.087c1.031,1.234 5.227,2.27 7.45,2.468 2.221,0.198 4.555,-1.11 7.038,-2.011 2.483,-0.901 9.012,-4.32 10.812,-4.407a7.87,7.87 0,0 0,4.184 -1.703c1.328,-0.852 4.791,-9.035 5.549,-11.109 0.41,-1.135 0.434,-4.456 0.608,-7.776 0.149,-2.752 0.534,-5.505 0,-7.06 -1.043,-3.444 -5.934,-9.874 -5.934,-9.874" fill="none" stroke="#808084" stroke-width="1.0" stroke-linecap="round" stroke-linejoin="round" fill-rule="evenodd"/><path d="M195.634,189.957v-52.741" fill="none" stroke="#3777b4" stroke-width="2.0" fill-rule="evenodd"/><path d="M203.597,139.556l-7.963,-13.832 -7.962,13.832z" fill="#3777b4"/><path d="M119.67,189.957v-52.741" fill="none" stroke="#3777b4" stroke-width="2.0" fill-rule="evenodd"/><path d="M127.633,139.556l-7.963,-13.832 -7.963,13.832z" fill="#3777b4"/></svg>