<svg xmlns="http://www.w3.org/2000/svg" viewBox="0 0 341.0 288.0" data-vw="341.0" data-vh="288.0" preserveAspectRatio="xMidYMid meet"><path d="M216.424,167.897s-9.793,17.957 -11.458,20.966c-1.665,3.01 -5.673,14.529 -8.25,21.287 -2.578,6.759 -3.034,14.973 -4.268,17.686l-2.639,5.796M162.837,232.695s7.3,0.987 11.284,1.394c3.984,0.407 13.875,-1.826 22.558,2.195a64.675,64.675 0,0 1,14.109 8.757" fill="none" stroke="#808084" stroke-width="1.0" stroke-linecap="round" stroke-linejoin="round" fill-rule="evenodd"/><path d="M148.752,258.706s22.989,16.119 29.97,17.772c6.98,1.652 18.623,0.407 24.37,-1.653s6.068,-11.507 6.068,-11.507 -0.703,-10.94 -3.392,-13.69 -13.973,-14.676 -13.973,-14.676 13.184,0.79 15.934,-6.598 6.327,-39.885 6.327,-39.885l5.883,26.849 2.886,21.274 -2.948,50.776 -4.378,5.537 -12.087,5.217 -32.78,-7.572 -21.535,-15.552 -10.766,-6.574 10.421,-9.718z" fill="#e0e3e4"/><path d="M162.837,232.695s7.3,0.987 11.284,1.394c3.984,0.407 13.875,-1.826 22.558,2.195a64.675,64.675 0,0 1,14.109 8.757M138.035,268.621s5.858,3.022 11.1,6.377c5.241,3.354 15.773,12.715 21.496,15.552 5.723,2.836 29.834,7.572 32.781,7.572 2.948,0 9.57,-2.725 12.087,-5.217 2.516,-2.491 11.864,-16.131 11.864,-16.131l11.704,-9.756" fill="none" stroke="#808084" stroke-width="1.0" stroke-linecap="round" stroke-linejoin="round" fill-rule="evenodd"/><path d="M138.035,268.621s5.858,3.022 11.1,6.377c5.241,3.354 15.773,12.715 21.496,15.552 5.723,2.836 29.834,7.572 32.781,7.572 2.948,0 9.57,-2.725 12.087,-5.217 2.516,-2.491 11.864,-16.131 11.864,-16.131l11.704,-9.756" fill="none" stroke="#808084" stroke-width="1.0" stroke-linecap="round" stroke-linejoin="round" fill-rule="evenodd"/><path d="M341.185,32.825l-10.051,-8.633c-4.625,-3.984 -9.953,-10.829 -11.815,-15.244a68.547,68.547 0,0 1,-3.971 -19.104l-0.074,-1.233a91.536,91.536 0,0 1,1.578 -20.646,113.859 113.859,0 0,1 6.623,-19.116 77.699,77.699 0,0 0,5.55 -16.33l1.085,-6.782" fill="none" stroke="#808084" stroke-width="1.5" stroke-linecap="round" stroke-linejoin="round" fill-rule="evenodd"/><path d="M214.512,152.592l-3.564,28.366 -0.777,22.409 2.689,14.701v9.867l-2.997,51.799 -1.234,12.53h136.996l0.839,-260.228s-8.867,-6.833 -13.566,-10.878c-4.7,-4.045 -8.856,-7.24 -8.856,-7.24s-1.233,4.527 -3.527,6.537a47.384,47.384 0,0 1,-15.959 9.003c-7.548,2.33 -18.808,5.994 -18.808,5.994s16.613,-0.333 22.2,1.714 15.108,11.31 19.363,23.433c2.257,6.438 3.243,26.38 2.466,34.99 -0.777,8.608 -5.093,32.88 -7.4,38.38 -2.306,5.5 -19.153,18.5 -23.889,19.289 -4.736,0.789 -22.791,2.466 -27.75,-3.293 -4.957,-5.76 -5.968,-7.252 -5.968,-7.252l-32.621,8.103 -17.637,1.776z" fill="#2096f3"/><path d="M213.057,162.125s17.02,9.213 34.607,13.887c17.587,4.674 36.826,8.72 39.465,9.398 5.415,1.43 10.262,-0.641 7.265,-2.134 -2.997,-1.492 -30.007,-14.997 -31.66,-16.255 -1.652,-1.258 -2.565,-3.7 -0.258,-5.414 2.306,-1.714 18.253,-1.973 24.666,-3.231 6.413,-1.258 14.8,-5.5 14.8,-5.5a29.6,29.6 0,0 1,-7.4 1.097c-6.648,-0.185 -17.378,-0.641 -20.017,-1.579 -3.91,-1.393 -9.743,-8.769 -9.743,-8.769l-28.194,7.19 -22.322,4.182 -1.21,7.128z" fill="#1d88e5"/><path d="M187.22,20.369s9.866,4.34 13.393,4.65c3.527,0.307 28.884,-4.219 33.607,-5.55a115.191,115.191 0,0 0,18.5 -7.709c3.182,-1.949 12,-12.333 13.505,-14.331 1.505,-1.998 3.453,-8.177 3.453,-8.177a71.865,71.865 0,0 1,-0.826 10.792c-0.814,4.316 -7.19,15.848 -8.83,19.03 -1.641,3.181 -3.59,11.716 -3.294,14.577 0.296,2.862 7.092,22.508 7.092,22.508l2.775,10.792 -9.694,0.838 -4.49,-8.633 -4.723,-3.503 -7.61,-12.95 -3.49,-8.016 -3.7,-3.28 -11.926,-1.234 -22.914,0.173 -8.745,-4.49 -2.084,-5.487zM184.173,0.759a8.547,8.547 0,0 1,4.107 0c1.517,0.617 3.86,4.933 4.082,6.092 0.222,1.16 1.233,4.391 0,4.391s-4.514,-2.874 -4.514,-2.874l-3.675,-7.61z" fill="#e0e3e4"/><path d="M210.948,180.92s3.083,21.312 5.698,25.358c2.614,4.045 11.47,11.519 21.373,17.92 9.904,6.4 38.233,24.407 37.826,26.306 -0.407,1.9 -3.084,2.886 -6.167,2.886 -3.083,0 -18.5,-4.428 -23.433,-6.376 -4.933,-1.949 -26.7,-14.492 -29.192,-16.218l-4.193,-2.898v-9.867l-2.689,-14.701 0.777,-22.41zM343.985,247.384s-23.433,-9.003 -27.947,-11.014c-4.514,-2.01 -13.048,-7.659 -20.288,-11.013 -7.24,-3.355 -5.167,3.86 -2.306,7.4a117.83,117.83 0,0 0,22.31 20.066c8.4,5.784 28.231,16.107 28.231,16.107v-21.546zM211.28,255.19s24.223,14.023 26.74,15.873c2.515,1.85 6.499,3.7 5.993,5.316 -0.506,1.616 -12.148,1.381 -14.985,0.247 -2.836,-1.135 -18.598,-6.796 -18.598,-6.796l0.85,-14.64z" fill="#1d88e5"/><path d="M258.171,70.244l-3.7,-7.166a19.486,19.486 0,0 0,-4.415 -5.686,22.656 22.656,0 0,1 -4.612,-5.574l-3.108,-5.291c-1.234,-2.109 -3.034,-5.636 -3.996,-7.844a20.128,20.128 0,0 0,-3.59 -5.648,13.628 13.628,0 0,0 -6.264,-2.097l-3.096,-0.32c-2.467,-0.26 -6.413,-0.445 -8.855,-0.42l-14.072,0.099a21.447,21.447 0,0 1,-8.387 -1.986l-0.85,-0.432a12.839,12.839 0,0 1,-5.18 -4.81,14.294 14.294,0 0,1 -1.234,-4.427c0,-0.9 0.234,-3.577 0.518,-5.957a17.266,17.266 0,0 0,-1.332 -8.115,19.88 19.88,0 0,1 -1.85,-4.933 6.265,6.265 0,0 1,1.406 -2.899l1.418,-1.776" fill="none" stroke="#808084" stroke-width="1.5" stroke-linecap="round" stroke-linejoin="round" fill-rule="evenodd"/><path d="M282.96,138.951l-46.372,11.865s-26.59,5.266 -37.295,6.253c-10.705,0.986 -62.775,2.935 -62.775,2.935s-39.306,0.259 -54.82,-1.233c-15.516,-1.493 -49.062,-8.19 -55.08,-10.755 -5.735,-2.467 -19.733,-7.474 -19.733,-7.474A5.92,5.92 0,0 1,3.9 137.62l-2.54,-5.303a6.29,6.29 0,0 1,-0.593 -3.49l2.06,-17.698s0.79,-61.567 2.17,-75.01C6.38,22.675 18.244,-52.101 18.244,-52.101l50.048,-2.17 -0.481,16.464s3.342,52.07 4.563,60.975c1.221,8.905 6.315,22.335 7.869,31.72 1.554,9.386 4.575,21.93 4.575,21.93s29.23,-7.808 38.517,-9.633c9.286,-1.825 44.756,-5.291 44.756,-5.291s21.929,-1.887 26.307,-2.59c4.378,-0.703 32.572,-16.428 39.984,-18.5a187.463,187.463 0,0 1,23.95 -4.501c7.894,-1.135 12.013,-1.233 24.667,-1.64a98.233,98.233 0,0 1,23.063 2.072" fill="#f2f3f4" stroke="#808084" stroke-width="1.5" stroke-linecap="round" stroke-linejoin="round"/><path d="M199.232,121.414c-4.292,-2.331 -3.811,-3.996 1.06,-3.7l33.719,1.973a54.648,54.648 0,0 0,17.266 -2.331l46.36,-15.688a33.534,33.534 0,0 0,13.715 -9.977l12.456,-16.76c2.91,-3.923 5.328,-3.133 5.365,1.75l0.136,16.551a95.335,95.335 0,0 1,-1.826 17.55l-3.7,16.946a29.6,29.6 0,0 1,-8.818 14.245l-8.152,6.573a27.91,27.91 0,0 1,-15.799 5.291l-8.559,-0.271c-4.933,-0.148 -10.557,-2.64 -12.629,-5.538 -2.072,-2.898 -7.61,-4.23 -12.333,-2.947l-12.333,3.354c-4.711,1.234 -12.506,2.985 -17.328,3.799l-19.733,3.318c-4.822,0.814 -12.752,1.652 -17.636,1.887l-45.028,2.096c-4.872,0.234 -12.864,0.333 -17.748,0.21l-37,-0.839a166.188,166.188 0,0 1,-17.722 -1.566l-9.644,-1.492c-4.822,-0.753 -12.198,-1.678 -16.39,-2.048a70.484,70.484 0,0 1,-15.898 -3.934l-17.834,-7.018c-4.55,-1.788 -9.237,-5.266 -10.434,-7.732 -1.196,-2.467 -1.714,-8.46 -1.147,-13.308l0.222,-1.9c0.555,-4.846 2.023,-4.932 3.244,-0.221l0.456,1.776a22.78,22.78 0,0 0,10.101 12.678l0.333,0.173a66.734,66.734 0,0 0,16.65 5.538l18.647,3.083c4.823,0.79 5.205,-0.383 0.864,-2.602l-2.183,-1.11c-4.354,-2.233 -3.91,-3.996 0.974,-3.935l45.731,0.58c4.933,0.062 5.192,1.653 0.69,3.54l-3.674,1.541c-4.502,1.9 -4.194,3.355 0.69,3.256l82.385,-1.776a148.392,148.392 0,0 0,17.637 -1.677l22.027,-3.7c4.81,-0.814 5.241,-3.392 0.95,-5.723l-18.13,-9.915z" fill="#e0e3e4"/><path d="M84.817,76.817s-9.175,3.527 -11.482,3.527a7.178,7.178 0,0 1,-6.166 -3.7c-1.394,-2.466 -1.85,-10.076 -1.85,-19.942 0,-9.867 4.538,-68.683 4.538,-68.683l3.417,46.434 5.858,15.157 5.685,27.207z" fill="#e0e3e4"/><path d="M214.512,154.812l-3.564,26.109 -0.777,22.409 2.689,14.701v9.867l-2.997,51.799 -1.234,12.53h136.996l0.839,-260.228s-8.867,-6.833 -13.566,-10.878c-4.7,-4.045 -8.856,-7.203 -8.856,-7.203s-1.233,4.527 -3.527,6.537a47.384,47.384 0,0 1,-15.959 9.003c-7.548,2.33 -18.919,5.205 -18.919,5.205s16.724,0.456 22.274,2.466c5.55,2.01 15.108,11.31 19.363,23.433 2.257,6.438 3.243,26.38 2.466,34.99 -0.777,8.608 -5.093,32.88 -7.4,38.38 -2.306,5.5 -19.153,18.5 -23.889,19.289 -4.736,0.789 -22.791,2.466 -27.75,-3.293 -4.957,-5.76 -5.08,-6.364 -5.08,-6.364l-29.859,7.634 -21.25,3.614z" fill="none" stroke="#1d88e5" stroke-width="1.5" stroke-linecap="round" stroke-linejoin="round" fill-rule="evenodd"/><path d="M282.96,138.951l-46.372,11.865s-26.59,5.266 -37.295,6.253c-10.705,0.986 -62.775,2.935 -62.775,2.935s-39.306,0.259 -54.82,-1.233c-15.516,-1.493 -49.062,-8.19 -55.08,-10.755 -5.735,-2.467 -19.733,-7.474 -19.733,-7.474A5.92,5.92 0,0 1,3.9 137.62l-2.54,-5.303a6.29,6.29 0,0 1,-0.593 -3.49l2.06,-17.698s0.79,-61.567 2.17,-75.01C6.38,22.675 18.244,-52.101 18.244,-52.101l50.048,-2.17 -0.481,16.464s3.342,52.07 4.563,60.975c1.221,8.905 6.315,22.335 7.869,31.72 1.554,9.386 4.575,21.93 4.575,21.93s29.23,-7.808 38.517,-9.633c9.286,-1.825 44.756,-5.291 44.756,-5.291s21.929,-1.887 26.307,-2.59c4.378,-0.703 32.572,-16.428 39.984,-18.5a187.463,187.463 0,0 1,23.95 -4.501c7.894,-1.135 12.013,-1.233 24.667,-1.64a98.233,98.233 0,0 1,23.063 2.072" fill="none" stroke="#808084" stroke-width="1.5" stroke-linecap="round" stroke-linejoin="round" fill-rule="evenodd"/><path d="M170.532,201.468c0.271,-0.654 -0.136,-1.234 -0.814,-1.616l0.284,-0.691s-0.074,0.086 -0.099,0.136c-0.025,0.049 0.086,-0.087 0.099,-0.136 0.222,-0.506 0,-1.122 -0.592,-1.813l0.185,-0.432c0.37,-0.888 -5.008,-5.18 -16.181,-9.866l-2.763,-1.11c-2.837,-1.122 -5.34,-1.961 -7.474,-2.565a39.555,39.555 0,0 0,-2.035 -0.543,54.734 54.734,0 0,0 -1.887,-0.42 19.018,19.018 0,0 0,-2.775 -0.37c-0.863,0 -1.356,0.087 -1.455,0.309l-0.185,0.432c-0.888,0.074 -1.505,0.333 -1.714,0.838L131.189,188.198l0.691,-1.702a0.851,0.851 0,0 0,-0.395 0,2.109 2.109,0 0,0 -1.578,1.135 1.8,1.8 0,0 0,0.086 1.443c-0.478,0.17 -0.862,0.532 -1.06,0.999a1.64,1.64 0,0 0,-0.124 0.591c-2.59,0 -4.366,0.654 -4.933,1.875l-2.245,5.328c-0.567,1.344 0.42,3.231 2.566,5.34l-0.506,1.591a181.052,181.052 0,0 0,-2.356 6.92C116.266,227.748 116.908,232.274 128.18,237.615l-0.395,0.296 4.342,1.85 0.48,-0.21c13.32,5.439 17.02,3.256 25.382,-12.333 1.234,-2.356 2.467,-4.65 3.305,-6.463l0.802,-1.517c3.022,0.062 5.069,-0.542 5.636,-1.887l2.245,-5.315c0.604,-1.43 -0.567,-3.478 -2.997,-5.76l0.333,-0.79a2.356,2.356 0,0 0,2.023 -1.232c0.197,-0.57 0.129,-1.2 -0.185,-1.715 0.599,-0.13 1.107,-0.524 1.381,-1.073zM167.313,200h-0.37,0.37zM166.166,199.901l-0.506,-0.086 0.506,0.086zM164.933,199.679l-0.469,-0.099 0.469,0.099zM160.53,198.569l-0.37,-0.111 0.37,0.111zM151.897,195.51l-1.727,-0.715 1.727,0.715zM155.807,197.003l-0.494,-0.185 0.493,0.185zM168.867,199.913h0.259,-0.259zM169.533,199.679s0.136,0 0.173,-0.086c0.037,-0.087 -0.173,0.049 -0.222,0.086h0.049zM169.163,201.085l0.518,-1.233 -0.42,1.11a0.382,0.382 0,0 1,-0.098 0.123z" fill="none" stroke="#808084" stroke-width="1.0" stroke-linecap="round" stroke-linejoin="round" fill-rule="evenodd"/><path d="M130.449,189.825l-0.296,0.703 0.296,-0.703z" fill="none" stroke="#808084" stroke-width="1.0" fill-rule="evenodd"/><path d="M125.171,200.888S123.184,205.944 121.384,211.642C115.859,229.019 117.104,232.918 131.436,238.972c14.331,6.056 17.994,4.23 26.627,-11.827 2.85,-5.266 5.081,-10.2 5.081,-10.2" fill="#e6e6e6" stroke="#808084" stroke-width="0.45"/><path d="M122.704,224.173a5.427,5.427 0,0 0,3.7 5.784l7.499,3.17 7.51,3.169a5.427,5.427 0,0 0,6.784 -1.369" fill="@drawable/$svg_apply_sensor_tutorial_5_v3__0" stroke="#808084" stroke-width="0.5"/><path d="M150.121,194.795c-6.389,-2.7 -18.142,-8.51 -16.995,-11.223C134.273,180.859 146.63,185.237 153.019,187.938c6.389,2.7 18.13,8.51 16.983,11.223 -1.147,2.713 -13.505,-1.665 -19.881,-4.366zM152.723,188.629C141.537,183.905 134.704,183.042 134.334,183.917c-0.37,0.876 5.008,5.18 16.181,9.867 11.174,4.686 18.019,5.587 18.389,4.699 0.37,-0.888 -5.007,-5.119 -16.181,-9.842L152.723,188.628z" fill="#ececed" stroke="#808084" stroke-width="0.43" stroke-linecap="round" stroke-linejoin="round"/><path d="M127.724,196.337l5.402,-12.765" fill="none" stroke="#231f20" stroke-width="0.22" fill-rule="evenodd"/><path d="M164.612,211.926l5.39,-12.765" fill="none" stroke="#808084" stroke-width="0.22" fill-rule="evenodd"/><path d="M142.046,213.909a6.907,25.024 112.92,1 0,5.38 -12.723a6.907,25.024 112.92,1 0,-5.38 12.723z" fill="#73c2ff" stroke="#3777b4" stroke-width="0.42"/><path d="M144.29,208.587a6.907,25.024 112.92,1 0,5.38 -12.723a6.907,25.024 112.92,1 0,-5.38 12.723z" fill="#bfbfc1" stroke="#808084" stroke-width="0.42"/><path d="M165.834,210.668c-2.209,-3.54 -12.038,-8.448 -17.822,-10.89 -5.784,-2.442 -16.157,-6.08 -20.239,-5.205l-0.974,-0.407 -0.79,1.875c-1.442,3.416 11.26,9.866 18.18,12.777 6.918,2.91 20.386,7.56 21.83,4.131l0.788,-1.874 -0.974,-0.407z" fill="#ececed" stroke="#808084" stroke-width="0.48" stroke-linecap="round" stroke-linejoin="round"/><path d="M144.817,207.338c-6.918,-2.923 -19.461,-9.756 -18.018,-13.172 1.443,-3.416 14.923,1.233 21.842,4.132 6.919,2.898 19.622,9.36 18.166,12.777 -1.455,3.416 -15.07,-0.814 -21.99,-3.737z" fill="#ececed" stroke="#808084" stroke-width="0.48" stroke-linecap="round" stroke-linejoin="round"/><path d="M150.121,194.795c-6.389,-2.7 -18.142,-8.51 -16.995,-11.223l-4.44,10.483c-0.864,2.072 6.684,7.227 16.86,11.544 10.174,4.316 19.152,6.166 20.028,4.045l4.428,-10.483c-1.147,2.713 -13.505,-1.665 -19.881,-4.366z" fill="#ececed" stroke="#808084" stroke-width="0.43" stroke-linecap="round" stroke-linejoin="round"/><path d="M162.306,218.857c-4.933,0.21 -12.469,-1.443 -20.35,-4.773 -7.88,-3.33 -14.27,-7.548 -17.6,-11.272l-0.998,3.083c3.38,3.7 9.669,7.782 17.39,11.1a60.679,60.679 0,0 0,10.779 3.786L135.864,226.96l-7.746,4.255 -5.92,2.553 3.7,2.836 22.373,-7.03 5.02,-5.105 1.91,-3.195c1.85,0.312 3.724,0.465 5.6,0.457l1.505,-2.874z" fill="#808084"/><path d="M124.85,201.245c3.305,3.7 9.768,8.03 17.723,11.384 7.955,3.354 15.49,5.032 20.51,4.785" fill="none" stroke="#3777b4" stroke-width="0.45" fill-rule="evenodd"/><path d="M144.287,208.571C131.559,203.194 122.445,195.979 123.925,192.464l-2.244,5.328c-1.493,3.503 7.634,10.717 20.362,16.107 12.727,5.39 24.259,6.894 25.739,3.38l2.244,-5.316c-1.48,3.515 -13.011,1.998 -25.739,-3.392z" fill="#e6e6e6" stroke="#808084" stroke-width="0.42"/><path d="M146.729,202.824C139.884,199.926 127.428,193.537 128.932,189.998a1.986,1.986 0,0 1,1.505 -1.147c0.358,-0.087 0.173,0.616 0.173,0.616s-0.383,0.962 -0.432,1.06c-0.469,1.123 4.933,5.896 17.081,11.1a0.678,0.678 0,0 1,0.358 0.889,0.69 0.69,0 0,1 -0.888,0.308z" fill="#ececed" stroke="#808084" stroke-width="0.43" stroke-linecap="round"/><path d="M168.818,201.948c0.054,0.04 0.1,0.09 0.135,0.148 0.505,0.593 0.668,1.404 0.432,2.146 -1.394,3.293 -13.702,-0.505 -21.632,-3.86C139.823,197.027 128.524,190.848 129.907,187.556c0.31,-0.613 0.899,-1.036 1.578,-1.135 0.13,-0.031 0.265,-0.031 0.395,0l-0.69,1.702c-0.482,1.135 4.933,5.87 17.08,11.013 12.149,5.143 19.339,5.686 19.82,4.539l0.728,-1.727z" fill="#ececed" stroke="#808084" stroke-width="0.43"/><path d="M169.718,199.852c0.678,0.382 1.085,0.962 0.814,1.615 -0.604,1.406 -3.034,1.702 -7.499,0.851a78.253,78.253 0,0 1,-14.183 -4.44l-1.677,-0.69c-2.812,-1.234 -5.488,-2.467 -7.831,-3.799a0.666,0.666 0,0 1,-0.26 -0.9,0.678 0.678,0 0,1 0.913,-0.272 86.332,86.332 0,0 0,9.361 4.428,76.737 76.737,0 0,0 13.924,4.366c4.563,0.863 5.895,0.259 6.019,0" fill="#ececed" stroke="#808084" stroke-width="0.43" stroke-linecap="round"/><path d="M152.723,188.641C141.537,183.917 134.704,183.054 134.334,183.93c-0.37,0.875 5.008,5.18 16.181,9.866 11.174,4.687 18.019,5.587 18.389,4.699 0.37,-0.888 -5.007,-5.13 -16.181,-9.854z" fill="#ececed" stroke="#808084" stroke-width="0.43" stroke-linecap="round" stroke-linejoin="round"/><path d="M153.414,187.001C142.228,182.277 135.394,181.414 135.024,182.301c-0.37,0.889 5.007,5.18 16.181,9.867 11.174,4.687 18.019,5.587 18.389,4.711 0.37,-0.875 -5.008,-5.143 -16.181,-9.878z" fill="#ececed" stroke="#808084" stroke-width="0.43" stroke-linecap="round" stroke-linejoin="round"/><path d="M153.414,187.001C142.228,182.277 135.394,181.414 135.024,182.301l-0.69,1.629c-0.37,0.888 5.007,5.18 16.18,9.866 11.174,4.687 18.019,5.587 18.389,4.699l0.69,-1.628c0.37,-0.839 -5.007,-5.13 -16.18,-9.866z" fill="#f5b335" stroke="#808084" stroke-width="0.43" stroke-linecap="round" stroke-linejoin="round"/><path d="M153.414,187.001C142.228,182.277 135.394,181.414 135.024,182.301l-0.69,1.629c-0.37,0.888 5.007,5.18 16.18,9.866 11.174,4.687 18.019,5.587 18.389,4.699l0.69,-1.628c0.37,-0.839 -5.007,-5.13 -16.18,-9.866z" fill="none" stroke="#808084" stroke-width="0.43" stroke-linecap="round" stroke-linejoin="round" fill-rule="evenodd"/><path d="M168.756,196.805c-0.937,-1.233 -5.883,-4.933 -15.675,-9.027 -9.793,-4.095 -15.86,-5.143 -17.39,-4.934 0.876,1.234 5.266,4.44 13.875,8.251l-0.543,2.134 2.997,1.233 1.147,-1.875c8.732,3.528 14.146,4.403 15.589,4.218z" fill="@drawable/$svg_apply_sensor_tutorial_5_v3__1"/><path d="M149.578,191.07l-0.555,2.134 2.997,1.258 1.147,-1.875z" fill="@drawable/$svg_apply_sensor_tutorial_5_v3__2"/><path d="M168.546,196.867c-1.652,0.086 -6.709,-0.814 -14.651,-3.971a0.913,0.913 0,0 0,-1.135 0.357l-0.641,1.036M135.777,182.955C136.864,184.189 141.019,187.21 148.814,190.738c0.416,0.18 0.64,0.634 0.53,1.073l-0.308,1.172" fill="none" stroke="#808084" stroke-width="0.43" stroke-linecap="round" stroke-linejoin="round" fill-rule="evenodd"/><path d="M153.414,187.001C142.228,182.277 135.394,181.414 135.024,182.301l-0.69,1.629c-0.37,0.888 5.007,5.18 16.18,9.866 11.174,4.687 18.019,5.587 18.389,4.699l0.69,-1.628c0.37,-0.839 -5.007,-5.13 -16.18,-9.866z" fill="none" stroke="#808084" stroke-width="0.43" stroke-linecap="round" stroke-linejoin="round" fill-rule="evenodd"/><path d="M144.146,160.061a6.907,14.8 88.37,1 0,29.588 -0.842a6.907,14.8 88.37,1 0,-29.588 0.842z" fill="#ffffff" stroke="#bfbfc1" stroke-width="0.97"/><path d="M145.644,162.015a5.686,13.357 88.37,1 0,26.703 -0.76a5.686,13.357 88.37,1 0,-26.703 0.76z" fill="#ffffff" stroke="#bfbfc1" stroke-width="0.99"/><path d="M173.739,159.215c-0.11,-3.811 -6.82,-6.71 -14.997,-6.488C150.565,152.949 144.041,156.242 144.14,160.066a4.477,4.477 0,0 0,1.936 3.268c1.48,2.466 6.795,4.168 13.085,3.983 6.29,-0.185 11.495,-2.183 12.84,-4.723a4.49,4.49 0,0 0,1.738 -3.38z" fill="none" stroke="#808084" stroke-width="0.99" fill-rule="evenodd"/><path d="M168.189,161.151v0.086c0,0.42 -0.641,0.777 -1.467,0.826l-2.467,0.148c-0.839,0 -1.566,-0.246 -1.628,-0.666v-0.148c0,-0.419 0.641,-0.776 1.468,-0.826l2.405,-0.148c0.826,0 1.554,0.247 1.615,0.666 0.032,0.011 0.058,0.033 0.074,0.062z" fill="#f2f4f5" stroke="#bfbfc1" stroke-width="0.61"/><path d="M120.855,211.79l-0.962,4.095 -13.998,3.157 2.466,-5.463 2.06,-1.43 -2.676,-1.468 -1.012,-2.985a9.015,9.015 0,0 0,4.86 1.233,14.8 14.8,0 0,0 6.474,-1.233 15.503,15.503 0,0 0,3.158 -2.467l1.43,1.37 -1.8,5.191z" fill="#e0e3e4" fill-rule="evenodd"/><path d="M119.091,210.237a8.128,8.128 0,0 1,-5.106 2.552c-3.626,0.58 -5.23,-0.715 -5.821,-1.295 -0.592,-0.58 -1.677,-4.28 -1.85,-5.327 -0.173,-1.049 1.85,-5.945 2.257,-7.03a4.563,4.563 0,0 1,2.627 -2.393c1.073,-0.395 4.316,-1.48 5.328,-1.024 0.678,0.309 3.095,1.468 4.662,2.208" fill="none" stroke="#808084" stroke-width="1.0" stroke-linecap="round" stroke-linejoin="round" fill-rule="evenodd"/><path d="M106.474,206.746c1.234,-3.009 3.404,-4.255 6.167,-5.303a7.178,7.178 0,0 1,5.18 -0.234M109.287,212.506l-6.167,10.545" fill="none" stroke="#808084" stroke-width="1.0" stroke-linecap="round" stroke-linejoin="round" fill-rule="evenodd"/><path d="M158.853,239.404s1.295,8.374 0.604,11.89c-0.32,1.59 -1.948,3.847 -3.367,6.166 -1.702,2.849 -3.28,5.76 -4.18,6.573 -1.629,1.48 -8.498,7.104 -10.064,7.228a7.733,7.733 0,0 1,-4.477 -0.444c-1.616,-0.765 -8.954,-0.777 -11.556,-1.147 -2.603,-0.37 -5.279,-0.346 -7.117,-1.505 -1.837,-1.16 -5.007,-4.045 -5.352,-5.587a4.674,4.674 0,0 0,-2.59 -3.7c-2.072,-1.32 -4.933,-1.233 -6.167,-2.972 -1.233,-1.739 -2.984,-5.143 -2.676,-6.722 0.308,-1.578 0.777,-3.428 -0.086,-4.76 -0.864,-1.332 -1.813,-1.838 -3.873,-3.28a9.953,9.953 0,0 1,-3.601 -6.969c-0.222,-2.553 3.17,-6.055 5.537,-7.807 2.368,-1.751 5.476,-6.61 7.117,-7.165 1.64,-0.555 13.566,-3.454 13.566,-3.454s7.795,-3.206 10.89,-3.305a63.133,63.133 0,0 0,8.152 -1.233c2.812,-0.432 10.31,-2.75 12.568,-1.591 2.257,1.16 3.552,2.281 4.131,4.144a4.082,4.082 0,0 1,-1.171 4.588c-1.234,0.727 -6.401,3.145 -6.401,3.145l-12.605,4.933 -7.967,4.144s-5.735,2.466 -7.819,3.38c-2.084,0.912 -4.86,4.76 -4.86,4.76l24.26,-7.24 10.261,-3.7s6.833,-1.504 8.954,-1.8c2.121,-0.296 8.127,-2.356 9.57,-1.406 1.443,0.95 3.787,4.65 3.034,6.548a8.226,8.226 0,0 1,-3.379 3.7,46.964 46.964,0 0,1 -6.24,3.293c-0.309,0.087 -1.234,0.407 -2.467,0.827l-0.63,0.468z" fill="#f2f3f4" stroke="#808084" stroke-width="1.0" stroke-linecap="round" stroke-linejoin="round" fill-rule="evenodd"/><path d="M158.853,239.848l0.765,10.064 -0.765,2.985 -6.438,10.606 -8.707,7.141 -3.848,0.79 -3.28,-0.802 -5.822,-0.555 -11.026,-1.073 -6.351,-5.957s8.263,2.565 11.359,2.75c3.095,0.185 7.313,-3.231 7.313,-3.231l2.467,-2.368 7.61,-3.7a34.631,34.631 0,0 1,3.514 -5.784c1.838,-2.282 3.083,-7.61 3.083,-7.61l10.126,-3.256z" fill="#e0e3e4" fill-rule="evenodd"/><path d="M96.472,229.205c-1.911,2.121 1.16,6.783 2.627,7.708a6.167,6.167 0,0 1,3.318 4.785c0.32,1.737 0.279,3.522 -0.124,5.242 0,0 1.234,-1.8 -2.75,-4.674 -3.984,-2.874 -5.525,-7.018 -5.204,-8.436 0.32,-1.419 2.824,-5.39 2.133,-4.625zM101.936,250.233l2.713,6.105 2.27,1.06 5.771,3.256s0.53,-0.222 -0.518,-2.54c-1.048,-2.319 -2.602,-2.775 -4.797,-3.848 -2.196,-1.073 -4.675,-2.442 -5.44,-4.033zM115.021,238.788c-1.085,-3.281 -0.654,-4.625 0,-6.167 0.654,-1.542 4.798,-4.107 7.536,-4.933 2.738,-0.826 7.326,-2.64 9.965,-2.738a17.266,17.266 0,0 0,7.252 -2.331,32.473 32.473,0 0,1 6.808,-3.552 24.58,24.58 0,0 0,6.29 -2.27c1.356,-0.813 1.788,-4.23 2.084,-4.316 1.726,-0.518 1.233,5.143 1.233,5.143l-8.572,4.329 -11.802,4.687 -16.502,7.967 -4.292,4.18z" fill="#e0e3e4"/><path d="M121.89,257.04a6.315,6.315 0,0 1,2.64 -6.635,39.54 39.54,0 0,1 7.844,-4.033c1.739,-0.456 3.897,-0.135 5.747,-0.887 1.85,-0.753 2.097,-1.554 4.933,-3.084 2.837,-1.53 8.078,-2.688 10.853,-3.44a79.376,79.376 0,0 0,13.37 -6.537,12.444 12.444,0 0,0 2.182,-1.567c0.753,-0.801 0.728,-4.365 0.728,-4.365l1.64,4.254 -2.738,3.935 -13.418,5.82 -15.429,6.97 -13.628,6.24 -4.723,3.33zM123.815,235.766l-7.918,2.602 5.426,-4.76z" fill="#e0e3e4" fill-rule="evenodd"/><path d="M121.89,257.04l3.158,-2.466 10.643,-5.562 7.93,-3.195 6.611,-3.428s10.496,-3.799 11.692,-4.156c2.16,-0.94 4.246,-2.04 6.24,-3.293a8.226,8.226 0,0 0,3.38 -3.7c0.752,-1.9 -1.579,-5.6 -3.034,-6.55 -1.456,-0.949 -7.4,1.099 -9.57,1.407 -2.171,0.308 -8.955,1.8 -8.955,1.8l-10.26,3.7 -24.26,7.24s2.763,-3.885 4.86,-4.76c2.096,-0.876 7.819,-3.38 7.819,-3.38l7.967,-4.144 12.604,-4.933s5.217,-2.467 6.401,-3.145a4.082,4.082 0,0 0,1.172 -4.588c-0.58,-1.862 -1.875,-2.984 -4.132,-4.144 -2.257,-1.16 -9.755,1.16 -12.567,1.591 -2.688,0.588 -5.411,1 -8.153,1.233 -3.095,0.1 -10.89,3.306 -10.89,3.306s-11.901,2.91 -13.566,3.453c-1.665,0.543 -4.748,5.402 -7.116,7.166 -2.368,1.763 -5.76,5.253 -5.538,7.806a9.953,9.953 0,0 0,3.601 6.969c2.06,1.443 3.01,1.948 3.873,3.28 0.863,1.332 0.407,3.182 0.086,4.76 -0.32,1.58 1.493,5.045 2.677,6.722 1.184,1.678 4.094,1.653 6.166,2.973a4.674,4.674 0,0 1,2.59 3.7c0.345,1.541 3.527,4.44 5.353,5.586 1.825,1.147 4.526,1.147 7.116,1.505 2.59,0.358 9.94,0.382 11.556,1.147a7.733,7.733 0,0 0,4.477 0.444c1.566,-0.123 8.436,-5.747 10.064,-7.227 0.9,-0.814 2.466,-3.7 4.18,-6.574 1.419,-2.368 3.047,-4.625 3.368,-6.166 0.69,-3.515 -0.605,-11.89 -0.605,-11.89" fill="none" stroke="#808084" stroke-width="1.0" stroke-linecap="round" stroke-linejoin="round" fill-rule="evenodd"/><path d="M131.597,262.665a12.678,12.678 0,0 1,3.885 -2.997c2.109,-0.9 8.892,-3.86 10.705,-4.588a12.432,12.432 0,0 0,5.809 -6.019l3.034,-8.016" fill="none" stroke="#808084" stroke-width="1.0" stroke-linecap="round" stroke-linejoin="round" fill-rule="evenodd"/><path d="M119.338,125.841v52.81" fill="none" stroke="#3777b4" stroke-width="2.0" fill-rule="evenodd"/><path d="M111.346,176.32l7.992,13.838 7.992,-13.837z" fill="#3777b4"/><path d="M195.58,125.841v52.81" fill="none" stroke="#3777b4" stroke-width="2.0" fill-rule="evenodd"/><path d="M187.59,176.32l7.99,13.838 7.993,-13.837z" fill="#3777b4"/></svg>