<svg xmlns="http://www.w3.org/2000/svg" viewBox="0 0 334.0 288.0" data-vw="334.0" data-vh="288.0" preserveAspectRatio="xMidYMid meet"><defs><clipPath id="f1_cp1"><path d="M0,0h360v288H0z M 0,0"/></clipPath></defs><g clip-path="url(#f1_cp1)"><path d="M322.157,74.583s-3.253,36.773 -16.804,52.997c-13.552,16.223 -20.093,17.216 -20.056,19.468 0.036,2.252 7.622,-1.848 8.13,0.54 0.51,2.39 -49.9,46.257 -49.9,46.257l41.77,-30.033 16.79,-13.157 13.835,-17.069 7.22,-15.23 3.85,-20.554 -1.132,-14.457 -4.076,-13.552 0.373,4.79zM46.146,286.152s24.496,-13.103 37.144,-16.708c12.648,-3.605 36.498,-7.21 41.557,-9.012 5.06,-1.803 29.272,-14.421 32.163,-19.83 2.89,-5.407 5.42,2.525 12.286,0.361 6.866,-2.163 26.38,-12.618 26.38,-12.618l-22.567,18.594 -13.208,3.037 -35.776,18.747 -18.393,4.904 -18.829,3.388 -40.757,9.137z" fill="#dedfdf" fill-rule="evenodd"/><path d="M173.707,10.857l-20.175,6.223 -16.875,1.527 -9.56,4.173 -13.88,1.125 -2.465,1.26 2.6,25.039 -1.793,12.52 -8.963,39.942 5.378,19.674 -0.598,17.885 0.598,5.366 -3.585,11.327 13.146,3.577 13.863,1.939 14.82,-1.94 8.367,-13.115 15.537,-7.75 17.927,1.192 7.171,1.789 25.097,-20.27 11.355,-13.712 9.56,-26.827 17.928,-22.058 13.146,-10.135 11.355,-2.385 12.548,1.193 14.342,5.365 10.159,13.712 4.91,12.486 1.065,10.168 -1.194,17.885 -6.574,20.27 -8.045,13.32 -14.065,14.104 -44.22,32.192 -50.794,32.79 -5.976,8.942 -22.708,17.289 -12.549,1.788 -38.842,21.462 -33.02,7.312 -8.859,5.109 -0.548,7.848 1.517,2.646 16.886,12.566 5.952,1.381 19.864,-4.67 115.93,11.924 5.975,1.789 9.562,8.942 5.378,1.192 3.592,7.717 7.163,-7.121 -4.145,-14.784 4.735,-7.617 -2.98,-7.407 2.988,-22.058 -1.195,-31.597 9.561,-19.078 5.378,-6.557 17.394,-44.882 23.945,-41.583 4.674,-18.46 1.462,-18.337 -0.864,-11.471 -1.682,-12.088 -3.696,-9.374 -4.78,-7.869 -10.16,-7.035 -7.17,-4.173 -7.768,-8.347 -17.623,-4.115 -6.54,-2.758L261.55,41.26l-1.919,6.958 -5.191,8.071 -14.36,0.135 -9.604,-4.433 -9.561,4.77 -15.537,1.88 -14.764,-4.265 -11.26,-7.81 -8.038,-13.055 -0.597,-10.136z" fill="#2196f3" fill-rule="evenodd"/><path d="M245.07,57.3c-7.048,4.056 -17.115,8.068 -26.33,6.716 -9.215,-1.352 -5.599,-4.191 -15.134,-6.716 11.687,3.095 22.455,-1.394 22.455,-1.394l5.052,-3.046 7.594,3.61 6.362,0.83zM103.91,102.15l3.89,-24.799s13.216,-33.05 15.94,-30.762c2.722,2.288 -7.379,34.106 -7.938,42.615 -0.559,8.507 22.907,-21.518 19.204,-13.611 -3.704,7.906 -22.302,33.692 -22.302,33.692l-5.074,13.783 -4.227,-17.882 0.507,-3.036zM231.633,108.652s-28.082,-14.188 -33.247,-17.208c-4.481,-2.623 -10.394,-11.76 7.142,-4.61 17.342,7.071 30.662,6.802 30.662,6.802l-4.557,15.016zM147.169,18.821s12.105,-0.887 15.792,0.628c3.685,1.513 8.455,6.705 8.455,6.705l0.65,-6.922 2.922,-8.056 -7.041,1.35 -20.778,6.295zM258.736,327.669s-8.397,-15.417 -12.734,-19.743c-4.336,-4.327 -78.135,-26.145 -80.625,-22.554 -2.492,3.59 40,15.603 37.094,18.78 -3.266,3.568 -18.409,4.556 -18.409,4.556l49.59,4.03 9.785,1.716 15.299,13.215zM234.809,263.546s19.062,-2.767 23.914,-1.73c4.852,1.038 11.205,1.73 11.898,5.879 0.347,-7.262 -1.01,-16.38 -1.01,-16.38l-33.639,9.391 -1.163,2.84zM209.455,131.684l-13.415,11.97 -26.391,-4.148s23.9,-1.27 30.113,-9.405c2.977,-3.899 -41.602,-19.961 -49.437,-23.87 -12.078,-6.025 -6.767,-9.994 9.338,-3.3s63.061,16.418 63.061,16.418l-4.523,4.814 -8.746,7.521zM306.101,43.797s-12.032,-4.56 -17.558,-4.693c-5.527,-0.131 -14.002,2.954 -14.002,2.954s-7.866,-4.537 2.076,-6.74c9.942,-2.201 19.58,-0.592 19.58,-0.592l9.904,9.071zM161.597,143.457c-5.68,1.96 -24.025,-5.447 -29.923,-7.844 -5.897,-2.397 -16.38,0.217 -7.863,4.575 8.519,4.359 13.324,11.55 13.324,11.55s-10.266,5.665 -18.566,5.447c-8.299,-0.218 -14.18,-0.267 -14.18,-0.267l2.605,1.792 10.541,1.785 12.392,1.701 16.292,-1.701 8.365,-13.116 7.013,-3.922z" fill="#1e88e5" fill-rule="evenodd"/><path d="M127.011,303.248s-5.569,-3.846 -8.996,-3.846c-3.426,0 -12.423,1.71 -15.849,0 -3.427,-1.71 -13.28,-6.838 -12.423,-10.684 0.857,-3.846 5.57,-9.038 14.137,-7.296 8.567,1.74 23.131,5.16 31.27,9.433 8.14,4.273 19.277,3.45 9.853,-2.992 -9.424,-6.441 -21.847,-13.248 -21.847,-13.248s17.135,-2.136 21.847,-8.12c4.712,-5.983 18.818,-7.727 23.959,-5.163 5.14,2.564 7.942,4.64 12.226,6.777 4.283,2.136 26.715,1.806 10.936,-8.451 -7.283,-3.847 -5.57,-13.248 -5.57,-13.248s1.286,-5.129 11.567,-8.548c10.28,-3.419 24.493,-4.904 28.348,-11.314 3.855,-6.411 5.492,-13.9 19.2,-23.302 13.709,-9.402 37.269,-27.35 37.269,-27.35s11.994,-2.565 16.706,-11.967c4.712,-9.402 16.278,-30.343 16.278,-30.343l-16.706,20.087 -32.985,24.786 -22.703,15.385 -41.735,26.863 -5.976,8.942 -22.708,17.29 -12.549,1.788 -34.406,19.05 -7.282,2.992 -30.174,6.732 -3.239,2.67 -5.62,2.439 -0.548,7.849 5.312,4.67 13.091,10.541 5.952,1.381 13.941,-2.948 9.424,-0.855zM298.341,183.76c-3.235,10.605 -15.714,16.6 -22.185,22.824 -6.47,6.225 -7.065,31.127 0.858,21.904 7.923,-9.223 9.773,-11.298 9.773,-11.298l11.554,-33.43z" fill="#1e88e5" fill-rule="evenodd"/><path d="M90.536,210.823s-18.446,1.736 -31.325,0c-12.877,-1.736 -17.054,-7.292 -20.186,-8.681 -3.133,-1.389 -7.31,-8.334 -6.961,-11.112 0.348,-2.777 4.524,-5.903 5.568,-11.805 1.045,-5.903 -1.74,-18.75 9.746,-34.03 11.485,-15.277 17.055,-29.861 17.055,-29.861l1.74,-8.681 -16.359,28.126 -12.878,19.792 -3.132,6.597 -1.74,16.32 -4.177,9.723 2.785,14.93 6.612,3.82 8.702,7.292 21.58,3.125 12.18,-1.736 10.79,-3.819zM72.785,91.722s8.354,-12.5 9.05,-17.361c0.696,-4.862 -4.524,-13.196 0.696,-25.001 -5.22,14.93 -6.613,20.14 -6.613,20.14v6.987l-3.133,15.235zM105.502,113.945s-2.088,15.278 -5.568,26.042c-3.48,10.765 -5.917,12.153 -5.917,12.153l5.568,4.515 4.803,0.263 4.247,-13.806 -1.74,-21.528 -1.393,-7.64zM120.469,205.614c9.745,-0.694 12.315,-6.979 19.84,-5.22 10.44,2.442 17.401,5.22 25.058,6.262 7.658,1.042 25.408,-1.389 25.408,-1.389l7.657,-5.208 10.443,-3.82 11.833,-3.473 -12.182,13.543 -20.883,5.903h-26.452l-20.535,-7.292 -7.658,-0.694 -12.53,1.388z" fill="#dedfdf" fill-rule="evenodd"/><path d="M252.087,144.175l-2.864,-3.545s-1.377,2.007 -2.428,2.802c-1.051,0.796 -5.431,3.154 -5.431,3.154s-7.357,3.545 -6.423,5.41M240.703,151.515s5.298,-2.602 7.65,-3.97c2.353,-1.367 6.642,-5.048 6.642,-5.048s6.42,5.708 7.999,10.7c1.58,4.99 2.633,16.55 2.633,16.55s-5.266,4.99 -10.27,7.092c-5.002,2.102 -12.638,4.466 -12.638,4.466" fill="none" stroke="#808184" stroke-width="1.692" fill-rule="evenodd"/><path d="M88.53,277.359c-1.265,3.424 -7.572,3.424 -8.656,5.948 -1.084,2.524 -0.86,10.037 3.4,11.508 5.071,1.751 12.302,12.845 19.35,12.304 7.046,-0.54 10.8,-4.18 28.256,-3.803 17.457,0.378 103.463,11.159 109.426,10.799 5.963,-0.36 13.252,12.257 17.95,12.438 4.697,0.18 5.023,7.391 5.023,7.391s7.3,-5.408 7.3,-7.932c0,-4.743 -3.252,-10.815 -3.252,-14.06 0,-3.245 4.336,-4.688 4.336,-7.571 0,-2.884 -2.89,-3.967 -2.71,-8.653 0.18,-4.686 3.434,-13.7 2.71,-21.631 -0.723,-7.931 -1.978,-21.056 -1.406,-27.893 0.572,-6.838 8.478,-21.935 13.665,-25.563 5.188,-3.628 14.24,-40.285 18.273,-45.65 4.033,-5.364 17.58,-33.038 24.25,-42.894 6.67,-9.856 10.752,-58.332 -3.164,-76.116 -6.706,-8.57 -12.83,-9.073 -17.9,-12.919 -5.45,-4.135 -7.85,-9.223 -10.278,-9.497 -4.688,-0.528 -10.696,-2.907 -15.244,-3.338 -2.364,-0.224 -5.52,-1.9 -8.009,-3.46" fill="none" stroke="#1e88e5" stroke-width="1.692" fill-rule="evenodd"/><path d="M10.13,294.532l-22.186,-5.769s-4.214,-2.125 -6.429,-1.513c-2.215,0.61 -13.427,5.25 -13.427,5.25s-2.515,0.208 -5.184,-0.786c-2.67,-0.994 -4.367,-2.914 -3.312,-5.482 1.054,-2.567 12.384,-10.117 12.384,-10.117l-15.557,5.853s-4.456,-0.97 -6.048,-4.34c-1.592,-3.37 -1.326,-5.342 -0.29,-6.634 1.036,-1.292 12.708,-9.39 12.708,-9.39l-15.321,6.724s-4.345,-2.582 -5.287,-4.594c-0.941,-2.012 -1.657,-3.944 -0.638,-5.906 1.02,-1.962 15.012,-10.338 15.012,-10.338l-15.157,4.849s-4.061,-5.441 -2.694,-8.35c1.366,-2.91 3.741,-5.98 3.741,-5.98l-5.231,1.417 -3.15,6.57 1.454,6.847 3.342,2.377 -1.807,6.064 2.125,5.888 7.135,2.327 -2.107,5.571 3.295,6.184 9.055,2.32 -1.199,4.957 2.117,3.717 0.993,1.131 1.133,0.937 9.133,1.037 15.102,-4.376 6.573,4.165 17.486,5.383 3.408,-1.803 10.958,-4.375 -12.13,0.185z" fill="#dedfdf" fill-rule="evenodd"/><path d="M-61.29,255.16c-0.844,-0.333 -2.972,-1.32 -3.486,-2.944 -0.644,-2.04 -1.22,-6.692 -1.22,-6.692s2.461,-5.622 5.423,-6.773c2.962,-1.15 17.279,-6.087 21.258,-7.47 3.978,-1.384 6.63,-3.482 9.052,-4.168 2.42,-0.686 6.818,-0.334 8.988,0.354 1.382,0.437 3.47,3.118 3.47,3.118l16.8,14.349s15.548,7.334 21.285,7.089c5.738,-0.245 47.903,-21.328 55.347,-24.389 7.443,-3.06 15.57,-10.191 22.658,-13.72 4.453,-2.22 13.456,-7.2 13.456,-7.2" fill="none" stroke="#808083" stroke-width="1.692" fill-rule="evenodd"/><path d="M-42.34,282.268s-2.437,5.011 -2.304,6.263c0.135,1.251 1.373,3.588 2.882,5.058 1.509,1.47 9.27,2.185 11.698,1.446 3.974,-1.21 11.26,-4.009 12.524,-4.552 1.265,-0.543 2.626,2.433 4.116,3.349 1.49,0.916 10.654,3.072 17.988,4.917 7.335,1.843 13.469,-3.243 16.006,-4.032 2.323,-0.723 4.537,-0.426 7.271,-0.699 2.734,-0.272 12.655,-6.132 18.305,-7.866 5.65,-1.735 65.388,-12.559 74.256,-15.537 8.87,-2.979 31.356,-17.432 36.603,-19.617 5.247,-2.185 11.656,-2.165 14.825,-3.04 3.168,-0.876 6.536,-3.712 9.383,-5.977 2.848,-2.264 14.234,-12.36 14.234,-12.36l6.944,-8.728 43.977,-28.183s8.246,-6.215 13.24,-8.732c4.995,-2.517 33.822,-24.6 40.398,-31.32 8.466,-8.65 17.981,-19.377 21.702,-31.055 3.72,-11.677 6.838,-18.77 4.77,-34.501 -2.027,-15.436 -10.552,-28.99 -15.138,-32.49 -9.263,-7.068 -25.242,-8.475 -35.775,-5.983 -10.533,2.492 -30.807,27.893 -34.202,33.473 -3.395,5.58 -8.049,23.568 -10.832,28.12 -2.78,4.553 -10.569,12.607 -10.569,12.607s-19.732,16.376 -24.128,20.703" fill="none" stroke="#808083" stroke-width="1.692" fill-rule="evenodd"/><path d="M189.003,5.172s-3.033,10.679 -1.9,18.624c1.134,7.945 8.058,14.921 17.239,21.39 9.18,6.47 17.86,11.643 17.86,11.643l9.043,-4.433 -15.987,-9.899 -16.951,-13.026 -4.716,-6.682 -4.46,-10.617 -0.128,-7z" fill="#dedfdf" fill-rule="evenodd"/><path d="M221.778,192.46s-8.564,9.405 -9.717,10.511c-1.153,1.106 -2.832,3.986 -4.23,4.576 -1.399,0.59 -5.879,1.283 -5.879,1.283l-15.441,3.368s-21.562,1.019 -24.302,0.546c-2.74,-0.473 -17.95,-6.492 -19.96,-7.236 -2.008,-0.744 -4.43,-1.3 -8.116,-1.23 -3.686,0.069 -28.276,2.934 -35.304,4.419 -7.028,1.485 -20.784,7.493 -27.384,8.238 -6.6,0.745 -21.145,-1.825 -23.391,-2.74 -2.246,-0.915 -5.795,-4.468 -8.962,-6.843 -3.168,-2.375 -6.938,-3.41 -8.228,-4.839 -1.29,-1.428 -4.466,-13.396 -2.928,-16.16 1.538,-2.763 2.772,-5.203 3.908,-7.482 1.137,-2.278 0.131,-10.733 2.66,-18.664 2.53,-7.932 13.851,-23.273 13.851,-23.273s13.69,-22.136 16.878,-28.97c3.188,-6.832 4.567,-8.83 7.577,-17.338 4.337,-12.257 1.807,-18.026 5.856,-31.466 1.521,-5.05 2.756,-8.841 7.715,-17.422 4.958,-8.582 24.832,-16.142 24.832,-16.142" fill="none" stroke="#808083" stroke-width="1.692" fill-rule="evenodd"/><path d="M54.286,141.071s5.402,-3.28 10.797,-1.307c5.395,1.973 11.44,4.444 17.671,6.96 6.23,2.514 10.066,6.392 12.865,7.886 2.8,1.493 12.25,4.53 18.66,5.855 6.412,1.324 16.37,1.96 19.859,1.531 3.488,-0.427 10.747,-0.602 12.169,-2.437 1.42,-1.836 7.098,-10.37 9.285,-11.99 2.186,-1.62 12.735,-7.694 14.59,-7.672 1.856,0.022 14.9,1.49 17.213,1.606 2.314,0.117 11.201,3.626 13.113,3.495 1.91,-0.13 9.792,5.59 9.792,5.59" fill="none" stroke="#808083" stroke-width="1.692" fill-rule="evenodd"/><path d="M105.134,157.006s2.408,-8.585 2.692,-14.132c0.284,-5.548 -0.318,-14.927 -0.385,-20.128 -0.067,-5.2 -4.64,-15.78 -4.142,-20.043 0.498,-4.263 3.163,-19.36 3.163,-19.36s2.671,-12 4.05,-15.307c1.379,-3.307 2.261,-13.948 2.7,-19.523 0.438,-5.575 -3.27,-20.44 -1.998,-22.917 1.271,-2.477 7.453,-1.93 14.88,-2.7 2.57,-0.266 7.613,-4.833 15.108,-4.423 7.496,0.41 23.306,-4.212 23.306,-4.212s11.104,-5.557 10.515,-1.962c0,0 -4.102,8.473 -4.102,16.044 0,7.57 6.318,17.501 11.015,20.654 4.697,3.153 11.277,7.349 20.849,8.758 9.572,1.41 17.028,-0.754 22.62,-2.361 2.117,-0.609 3.997,-1.765 5.657,-3.26" fill="none" stroke="#1e88e5" stroke-width="1.692" fill-rule="evenodd"/><path d="M191.636,147.16s5.078,3.464 6.846,3.679c1.767,0.214 6.583,0.262 6.583,0.262l3.95,-0.525 3.686,0.011 6.056,0.77s11.727,1.696 14.746,1.314c3.018,-0.381 3.955,0.006 3.955,0.006l3.944,1.045s4.748,0.78 6.056,1.84c1.309,1.058 1.055,6.342 -0.287,7.623M197.66,170.369s2.885,-1.47 6.38,-2.165c3.493,-0.695 11.557,-1.622 11.557,-1.622l5.793,-1.313 8.953,-0.788 12.376,-1.05s7.32,-0.194 10.269,0c1.34,0.087 3.007,2.485 3.188,4.51 0.218,2.437 -1.355,5.111 -3.451,5.22 -3.84,0.2 -7.636,0.52 -7.636,0.52l-7.373,1.845s-3.609,0.6 -4.972,0.776c-1.364,0.176 -3.412,1.874 -6.65,2.376 -3.24,0.502 -7.6,0.788 -7.6,0.788s-9.587,3.414 -12.113,4.203c-2.526,0.788 -5.53,3.94 -5.53,3.94" fill="none" stroke="#808083" stroke-width="1.692" fill-rule="evenodd"/><path d="M197.429,201.27s2.207,-2.468 5.266,-3.416 12.903,-3.677 12.903,-3.677 6.542,-1.353 9.742,-2.627c3.2,-1.275 8.419,-2.563 9.743,-3.678 1.324,-1.115 11.61,-10.245 12.639,-11.296 1.028,-1.05 0.263,-3.152 0.263,-3.152M192.316,-10.596s-4.027,15.856 -3.61,20.06c0.415,4.204 3.577,12.453 8.274,18.39 4.697,5.937 27.47,20.899 27.47,20.899s11.122,6.476 14.119,7.32c2.997,0.843 14.301,1.042 15.88,-0.253 1.578,-1.295 3.627,-5.215 4.764,-7.162 1.139,-1.947 0.977,-5.43 2.128,-7.613 1.15,-2.183 7.679,-8.92 8.873,-10.193 1.194,-1.273 3.234,-7.636 3.234,-7.636M284.859,-9.607s1.097,5.358 0.964,7.953c-0.132,2.594 -1.079,4.69 -1.992,6.691 -0.723,1.585 -6.613,9.183 -7.813,12.047M184.93,-19.054s-3.783,18.238 -4.773,21.462c-2.272,7.407 -6.757,9.028 -6.757,9.028" fill="none" stroke="#808083" stroke-width="1.692" fill-rule="evenodd"/><path d="M240.058,31.917c2.123,-0.504 4.326,-0.33 5.043,-0.001 0.718,0.33 3.266,1.074 4.892,1.099 1.638,0.026 6.085,-1.071 7.82,-0.172 1.65,1.384 4.171,1.382 5.782,0.527 1.135,-0.603 3.621,0.081 3.621,0.081M263.72,38.01c-2.217,0.92 -3.325,1.381 -5.15,0.9 -1.825,-0.481 -3.834,-0.151 -4.916,-0.08 -1.313,0.086 -2.745,-0.732 -3.08,-1M274.743,-4.623c0.188,1.214 0.668,5.274 0.71,6.854 0.04,1.581 -0.324,3.627 -0.38,6.685 -0.054,3.058 1.048,9.574 1.048,9.574s-0.229,2.445 -0.89,3.28c-0.66,0.835 -3.538,2.605 -4.543,2.848 -1.006,0.243 -3.383,0.356 -4.462,-0.207 -1.079,-0.562 -1.626,-2.141 -2.927,-2.89 -1.3,-0.75 -3.683,-1.154 -4.85,-1.218 -1.166,-0.065 -4.796,-0.96 -5.37,-1.933 -0.573,-0.974 -0.708,-2.937 -0.479,-4.377 0.23,-1.44 2.049,-2.342 2.049,-2.342" fill="none" stroke="#808083" stroke-width="1.692" fill-rule="evenodd"/><path d="M254.649,11.65s-1.82,0.902 -2.049,2.343c-0.23,1.44 -0.094,3.403 0.479,4.377 0.574,0.974 4.204,1.868 5.37,1.933 1.167,0.065 3.55,0.468 4.85,1.217 1.3,0.75 1.848,2.329 2.927,2.892 1.08,0.563 3.456,0.449 4.462,0.206 1.005,-0.243 3.883,-2.013 4.543,-2.848 0.661,-0.835 0.89,-3.28 0.89,-3.28s-1.102,-6.516 -1.047,-9.574c0.055,-3.058 0.419,-5.104 0.378,-6.684 -0.04,-1.582 -0.521,-5.64 -0.71,-6.855 -0.187,-1.213 -1.234,-3.303 -1.17,-5.258 0.008,-0.264 0.083,-0.54 0.212,-0.813l0.114,-0.051c1.677,0.348 2.358,1.93 5.623,2.027 3.523,0.105 6.246,-1.266 6.246,-1.266l-0.595,-2.615 0.068,-0.1c1.04,-0.102 1.768,-0.284 2.314,-0.64 2.24,-1.468 5.191,-5.235 5.444,-7.77 0.252,-2.535 -1.015,-4.971 -0.51,-10.064 0.503,-5.092 2.338,-17.739 2.685,-23.517 0.346,-5.779 -2.052,-32.355 -20.18,-47.437 -18.128,-15.084 -37.697,-15.73 -54.264,-11.543 -24.154,6.104 -37.169,20.824 -40.393,42.888 -2.22,15.195 -0.447,24.761 0.808,28.58" fill="none" stroke="#808083" stroke-width="1.692" stroke-linejoin="round" fill-rule="evenodd"/><path d="M86.181,221.856c10.841,-6.49 27.825,-12.553 32.885,-12.584 5.782,-0.034 28.187,-2.197 28.187,-2.197l-7.589,-3.606 -25.296,2.524 -8.673,3.605 -19.514,12.258z" fill="#808083" fill-rule="evenodd"/></g></svg>