<svg xmlns="http://www.w3.org/2000/svg" viewBox="0 0 307.0 288.0" data-vw="307.0" data-vh="288.0" preserveAspectRatio="xMidYMid meet"><defs><clipPath id="f5_cp1"><path d="M-15,0h360v288L-15,288z M 0,0"/></clipPath><clipPath id="f5_cp2"><path d="M0,-71h308.049v382.524L0,311.524z M 0,0"/></clipPath></defs><g clip-path="url(#f5_cp1)"><g clip-path="url(#f5_cp2)"><path d="M95.837,91.821c2.98,-2.258 14.81,-9.016 14.81,-9.016" fill="none" stroke="#808083" stroke-width="1.373" stroke-linecap="round" fill-rule="evenodd"/><path d="M158.373,39.924s-1.45,17.199 -2.003,20.275c-1.266,7.066 -5.209,9.055 -5.209,9.055" fill="none" stroke="#808083" stroke-width="1.354" fill-rule="evenodd"/><path d="M151.036,68.911l-8.113,4.12 -25.51,3.206 -2.333,2.406 -6.413,2.33 -2.078,4.198 -0.765,26.658 -1.957,29.985 -4.35,11.917 0.164,17.694 1.026,16.566 1.025,4.902 -2.309,10.773 12.442,2.148 12.959,0.572 13.5,-3.093 19.883,-4.112 6.912,-0.444 5.352,-0.446 11.475,-15.816 21.885,-19.707 9.633,-14.576 7.859,-26.277 12.578,-17.364 11.163,-11.148 6.252,-4.215 15.477,-2.559 13.702,3.693c2.924,2.124 4.979,3.846 6.165,5.165s2.658,3.52 4.416,6.604l5.63,11.098 1.878,9.295c0.89,3.704 1.362,6.527 1.417,8.469 0.056,1.942 -0.257,4.658 -0.94,8.149 -0.102,2.523 -0.458,5.164 -1.07,7.925 -0.612,2.76 -1.68,6.55 -3.206,11.369l-6.247,13.006 -12.435,14.245 -28.323,27.232 -15.736,13.239 -32.829,24.091 -9.042,12.581c-5.015,5.467 -9.036,9.6 -12.064,12.399 -3.027,2.8 -5.48,4.653 -7.358,5.56l-15.05,5.3 -30.304,20.684 -29.813,9.652 -7.721,5.495 0.186,7.297 1.633,2.309 16.684,10.119 5.612,0.752 17.911,-6.057 107.986,0.824 5.67,1.127 9.608,7.416 5.067,0.629 3.994,6.81 5.98,-7.205 -5.128,-13.287 3.696,-7.448 -3.401,-6.578 0.81,-20.63 -3.888,-29.07 7.136,-18.456 4.383,-6.526 10.908,-39.451 19.598,-44.02c1.306,-3.544 2.112,-6.304 2.415,-8.279 0.304,-1.975 0.394,-5.034 0.27,-9.175l-0.27,-17.06 -1.808,-10.516 -2.618,-11.013 -4.237,-8.331 -5.102,-6.846 -9.991,-5.604 -6.982,-3.223 -7.902,-7.024 -16.619,-2.251 -5.592,0.414 -8.647,15.655 -0.99,6.62 -3.879,8.008 -13.196,1.714 -9.328,-3.018 -8.265,5.45 -14.085,3.452 -14.055,-2.292 -11.227,-5.945 -8.845,-11.132 -1.676,-9.268 1.357,-11.86z" fill="#2196f3"/><path d="M100.878,153.156l3.188,-18.307s7.45,-26.807 9.655,-24.952c2.206,1.856 -5.975,27.652 -6.428,34.55 -0.453,6.898 18.553,-17.445 15.555,-11.035 -3,6.41 -18.064,27.317 -18.064,27.317l-5.338,12.984 0.437,-11.802 0.995,-8.755zM221.846,103.777c-6.032,4.515 -14.847,9.325 -23.475,9.1 -8.627,-0.224 -5.616,-3.239 -14.67,-4.51 11.098,1.557 20.504,-3.768 20.504,-3.768l4.31,-3.365 7.387,2.484 5.944,0.059zM212.539,147.921s-27.154,-10.633 -32.185,-12.968c-4.364,-2.027 -10.625,-9.945 6.18,-4.884 16.623,5.006 28.885,3.587 28.885,3.587l-2.88,14.265zM117.413,76.237s21.132,0.79 24.692,1.776c3.56,0.986 8.524,5.239 8.524,5.239l-0.17,-6.447 1.791,-7.742 -6.327,2.023 -3,2.236 -25.51,2.915zM145.649,148.962c-15.446,-4.767 -19.995,-0.634 -8.323,3.868 7.572,2.92 50.178,13.877 47.707,17.696 -9.504,14.69 -27.455,17.29 -34.354,16.524 -6.9,-0.767 -24.177,-4.316 -27.966,-5.453 -5.65,-1.695 -15.09,1.64 -6.849,4.916 8.242,3.275 13.308,9.492 13.308,9.492s-8.97,6.134 -16.644,6.662c-7.675,0.528 -13.105,0.999 -13.105,0.999l-0.314,2.11 8.03,3.176 18.609,0.996 15.16,0.207 15.55,-2.965 8.36,-4.752 5.622,-2.198 2.184,-3.638 4.355,-5.883 17.135,-19.584 7.404,-7.713 3.747,-4.842c0,0.001 -44.17,-4.852 -59.616,-9.618" fill="#1e88e5"/><path d="M100.119,203.682s1.464,-8.138 1.237,-13.285c-0.227,-5.147 -1.61,-13.755 -2.13,-18.55 -0.52,-4.797 0.86,-14.165 0.943,-18.144 0.084,-3.98 3.594,-10.596 3.594,-10.596s0.53,-11.345 1.43,-14.543c0.902,-3.198 0.53,-13.096 0.314,-18.277 -0.217,-5.184 0.66,-23.256 1.554,-25.677 0.894,-2.421 0.16,-4.052 6.907,-5.583 2.335,-0.53 0.526,-3.3 7.467,-3.753 6.942,-0.452 21.517,-2.21 21.517,-2.21s9.597,-6.346 9.455,-2.97c0,0 -2.832,8.256 -1.99,15.228 0.841,6.971 7.757,15.416 12.428,17.8 4.671,2.383 11.191,5.52 20.154,5.756 8.962,0.239 15.58,-2.58 20.547,-4.68 1.753,-0.74 3.263,-1.897 4.562,-3.315" fill="none" stroke="#1e88e5" stroke-width="1.354" fill-rule="evenodd"/><path d="M105.507,110.287c-0.217,-5.184 0.66,-23.256 1.554,-25.677 0.894,-2.421 0.16,-4.052 6.907,-5.583 2.335,-0.53 0.526,-3.3 7.467,-3.753 6.942,-0.452 21.517,-2.209 21.517,-2.209" fill="none" stroke="#1e88e5" stroke-width="1.354" fill-rule="evenodd"/><path d="M-44.738,308.935c-0.808,-0.234 -2.857,-0.957 -3.474,-2.412 -0.774,-1.826 -1.717,-6.073 -1.717,-6.073s1.775,-5.407 4.406,-6.73c2.63,-1.321 15.401,-7.138 18.95,-8.765 3.548,-1.627 5.81,-3.797 7.982,-4.644 2.172,-0.846 6.26,-0.907 8.322,-0.462 1.313,0.282 3.476,2.573 3.476,2.573l16.761,11.772s14.99,5.407 20.26,4.676c5.27,-0.73 42.305,-23.903 48.902,-27.382 6.595,-3.479 19.689,-15.928 19.689,-15.928l6.792,-6.491s5.15,-6.282 8.607,-8.94c3.457,-2.658 18.083,-11.698 18.083,-11.698" fill="none" stroke="#808083" stroke-width="1.354" fill-rule="evenodd"/><path d="M101.262,152.986l3.186,-18.292s7.443,-26.786 9.647,-24.933c2.204,1.855 -5.97,27.63 -6.423,34.523 -0.452,6.892 18.538,-17.431 15.542,-11.026 -2.998,6.405 -18.05,27.295 -18.05,27.295l-4.106,11.165 -0.79,-9.984 0.994,-8.748z" fill="#1e88e5"/><path d="M222.131,103.647c-6.026,4.512 -14.834,9.317 -23.455,9.093 -8.62,-0.224 -5.612,-3.237 -14.658,-4.506 11.088,1.555 20.487,-3.765 20.487,-3.765l4.306,-3.362 7.382,2.481 5.938,0.059zM212.832,147.755s-27.132,-10.624 -32.158,-12.958c-4.36,-2.025 -10.617,-9.937 6.176,-4.88 16.607,5.002 28.86,3.584 28.86,3.584l-2.878,14.254zM127.87,77.001s11.028,-0.082 14.585,0.904c3.556,0.984 8.517,5.234 8.517,5.234l-0.171,-6.442 1.79,-7.735 -6.32,2.021 -18.4,6.018zM229.408,290.38s17.324,-4.226 21.887,-3.695c4.564,0.53 10.48,0.612 11.486,4.378 -0.32,-6.73 -2.374,-15.021 -2.374,-15.021l-30.177,11.616 -0.822,2.722zM275.753,81.384s-11.493,-3.152 -16.598,-2.789c-5.105,0.363 -12.644,3.955 -12.644,3.955s-7.65,-3.497 1.32,-6.4c8.97,-2.905 17.994,-2.266 17.994,-2.266l9.928,7.5z" fill="#1e88e5"/><path d="M145.996,148.795c-15.433,-4.763 -19.978,-0.633 -8.316,3.864 7.566,2.918 50.137,13.867 47.668,17.682 -9.497,14.678 -27.433,17.278 -34.326,16.511 -6.893,-0.766 -24.158,-4.313 -27.943,-5.448 -5.646,-1.694 -15.077,1.639 -6.843,4.912 8.235,3.273 13.297,9.484 13.297,9.484s-8.962,6.13 -16.63,6.656c-7.669,0.528 -13.095,0.999 -13.095,0.999l2.56,1.425 9.872,0.72 11.572,0.482 14.865,-3 32.068,-5.162 5.57,-7.526 0.986,0.125 17.12,-19.567 7.398,-7.707 3.745,-4.838s-44.134,-4.85 -59.568,-9.612zM133.553,336.473s-5.472,-3.06 -8.63,-2.76c-3.159,0.301 -11.3,2.669 -14.609,1.392 -3.308,-1.276 -12.84,-5.143 -12.39,-8.766 0.45,-3.624 4.336,-8.827 12.385,-7.974 8.05,0.855 21.774,2.731 29.653,5.959 7.878,3.228 18.07,1.491 8.817,-3.625 -9.254,-5.116 -21.302,-10.304 -21.302,-10.304s15.603,-3.475 19.42,-9.41c3.815,-5.934 16.663,-8.78 21.627,-6.866 4.964,1.913 7.728,3.583 11.865,5.177 4.136,1.596 24.782,-0.678 9.335,-8.756 -7.052,-2.91 -6.3,-11.733 -6.3,-11.733s0.732,-4.845 9.906,-8.901c9.174,-4.057 22.142,-6.675 25.131,-12.927 2.988,-6.254 3.836,-13.307 15.642,-23.184 11.807,-9.878 31.94,-28.507 31.94,-28.507s10.827,-3.418 14.342,-12.505c3.515,-9.088 12.33,-29.424 12.33,-29.424l-13.629,19.998 -28.216,26.127 -19.569,15.824 -32.086,24.901 -8.732,12.32c-5.859,6.305 -10.48,11.018 -13.862,14.142 -3.383,3.123 -5.34,4.483 -5.87,4.079l-15.469,5.357 -25.645,17.715 -6.448,3.4 -27.218,8.86 -2.75,2.748 -4.964,2.742 0.185,7.29 5.308,3.842 12.994,8.576 5.608,0.752 12.59,-3.943 8.61,-1.616zM280.932,211.193c-2.046,10.068 -13.02,16.695 -18.436,23.005 -5.415,6.311 -3.768,29.337 2.72,20.133 6.491,-9.205 8.012,-11.28 8.012,-11.28l7.704,-31.858z" fill="#1e88e5"/><path d="M198.292,250.21l12.362,-13.364 6.837,-1.178z" fill="#e1e3e4" fill-rule="evenodd"/><path d="M95.805,315.965c-0.864,3.27 -6.677,3.824 -7.454,6.248 -0.777,2.423 0.092,9.335 4.148,10.318 4.828,1.171 12.47,10.772 18.917,9.654 6.447,-1.118 9.586,-4.805 25.709,-5.989 16.122,-1.184 96.34,1.211 101.804,0.356 5.465,-0.856 13.294,10.146 17.64,9.9 4.346,-0.246 5.28,6.378 5.28,6.378s6.253,-5.63 6.03,-7.96c-0.418,-4.375 -3.95,-9.692 -4.236,-12.685 -0.286,-2.994 3.584,-4.706 3.33,-7.366 -0.254,-2.66 -3.015,-3.406 -3.261,-7.744 -0.247,-4.34 1.958,-12.941 0.592,-20.196 -1.365,-7.254 -3.679,-19.251 -3.754,-25.61 -0.076,-6.36 5.88,-20.981 10.342,-24.783 4.462,-3.803 9.576,-38.417 12.819,-43.72 3.245,-5.304 13.292,-32.025 18.57,-41.704 5.28,-9.678 4.77,-54.761 -9.622,-69.947 -6.936,-7.318 -12.625,-7.243 -17.637,-10.347 -5.388,-3.336 -8.047,-7.82 -10.31,-7.86 -4.366,-0.076 -10.114,-1.743 -14.345,-1.741 -4.228,0.001 -11.023,-0.692 -11.023,-0.692" fill="none" stroke="#1e88e5" stroke-width="1.354" fill-rule="evenodd"/><path d="M-24.38,331.983s-1.805,4.838 -1.571,5.981c0.233,1.141 1.58,3.189 3.1,4.413 1.52,1.223 8.736,1.201 10.91,0.307 3.556,-1.465 10.024,-4.686 11.142,-5.3 1.117,-0.612 2.634,2.016 4.088,2.73 1.454,0.713 10.09,1.9 17.012,2.956 6.923,1.058 12.128,-4.174 14.397,-5.124 2.077,-0.87 4.145,-0.79 6.64,-1.283 2.495,-0.492 11.124,-6.768 16.178,-8.864 5.055,-2.097 59.159,-17.326 67.07,-20.854 7.912,-3.526 27.364,-18.835 32.007,-21.312 4.644,-2.477 10.551,-3.02 13.395,-4.107 2.843,-1.086 5.697,-3.998 8.121,-6.337 2.425,-2.339 12.03,-12.654 12.03,-12.654l9.076,-12.326 34.606,-26.197s7.05,-6.458 11.432,-9.217c4.382,-2.761 29.003,-25.666 34.473,-32.443 7.041,-8.724 14.866,-19.455 17.265,-30.556 2.4,-11.101 4.65,-17.917 1.359,-32.25 -3.23,-14.063 -12.281,-25.82 -16.817,-28.646 -9.159,-5.707 -22.823,-3.826 -32.311,-0.602 -9.487,3.224 -25.936,28.439 -28.574,33.884 -2.636,5.447 -5.934,21.563 -8.097,26.007 -2.164,4.445 -8.631,12.558 -8.631,12.558s-17.43,15.878 -21.009,20.33c-1.96,2.44 -11.296,15.132 -11.296,15.132" fill="none" stroke="#808083" stroke-width="1.354" fill-rule="evenodd"/><path d="M186.229,89.612l24.665,12.171 7.563,1.615 12.017,-2.01 2.58,-4.141 2.312,-10.011 7.219,-11.04 9.597,-24.072 -47.725,4.147z" fill="#f5f5f5"/><path d="M166.102,47.012s-1.94,15.035 -1.091,18.858c0.85,3.822 4.671,11.062 9.648,16.005 4.977,4.943 27.57,16.19 27.57,16.19s10.944,4.729 13.793,5.173c2.847,0.445 13.26,-0.624 14.568,-1.989 1.306,-1.366 2.755,-5.2 3.584,-7.117 0.83,-1.918 0.295,-5.105 1.11,-7.241 0.815,-2.136 6.069,-9.057 7.024,-10.36 0.957,-1.303 2.125,-7.383 2.125,-7.383" fill="none" stroke="#808083" stroke-width="1.354" fill-rule="evenodd"/><path d="M171.505,47.517s-3.682,0.983 -5.43,-0.534c-1.443,-1.251 -3.802,-4.051 -5.69,-5.224 -3.05,-1.897 -5.142,-6.755 -6.06,-9.303 -0.918,-2.548 -1.943,-9.254 -1.955,-11.828 -0.012,-2.572 1.54,-6.656 4.464,-7.845 2.89,-1.175 5.74,-0.818 8.216,1.447 2.475,2.264 4.89,5.917 5.826,6.565 0.935,0.646 2.142,0.783 2.142,0.783M251.277,37.682s1.602,4.809 1.77,7.211c0.165,2.403 -0.473,4.435 -1.09,6.378 -0.489,1.538 -5.058,9.18 -5.843,11.949M214.707,80.847c1.897,-0.699 3.941,-0.784 4.636,-0.56 0.695,0.225 3.12,0.627 4.618,0.47 1.509,-0.157 5.474,-1.658 7.168,-1.022 1.671,1.09 3.99,0.81 5.374,-0.155 0.977,-0.68 3.338,-0.326 3.338,-0.326M237.134,83.834c-1.936,1.093 -2.904,1.64 -4.635,1.399 -1.73,-0.241 -3.54,0.284 -4.526,0.47 -1.197,0.225 -2.605,-0.37 -2.943,-0.579" fill="none" stroke="#808083" stroke-width="1.354" fill-rule="evenodd"/><path d="M156.394,25.79s-0.498,-2.14 -0.601,-4.02c0,0 0.02,-1.803 0.26,-2.787 0.703,-2.88 4.2,-3.321 6.253,-2.045 2.052,1.275 3.356,3.234 4.933,5.404 1.484,2.046 3.494,4.925 3.294,6.346 -0.2,1.421 -0.322,1.876 -0.322,1.876 -0.517,0.519 -2.445,0.094 -2.975,2.303 -0.53,2.21 1.044,3.156 1.965,4.06 0.917,0.9 0.466,2.603 0.466,2.603 -0.168,1.186 -2.113,0.951 -3.344,-0.65M242.532,43.388c0.307,1.096 1.198,4.778 1.412,6.228 0.213,1.45 0.107,3.373 0.394,6.193 0.29,2.82 2.027,8.693 2.027,8.693s0.061,2.275 -0.453,3.117c-0.514,0.84 -2.963,2.788 -3.86,3.123 -0.897,0.335 -3.07,0.702 -4.126,0.304 -1.053,-0.399 -1.731,-1.79 -3.009,-2.336 -1.28,-0.546 -3.514,-0.654 -4.594,-0.584 -1.078,0.069 -4.515,-0.353 -5.15,-1.185 -0.636,-0.832 -0.977,-2.624 -0.927,-3.974 0.051,-1.35 1.623,-2.381 1.623,-2.381" fill="none" stroke="#808083" stroke-width="1.354" fill-rule="evenodd"/><path d="M229.397,41.281s-0.397,-2.318 -2.82,-3.301c-0.8,-0.325 -1.856,-0.288 -3.032,-0.085l0.109,0.39 0.966,2.661s-4.339,1.99 -7.73,2.317c-3.393,0.328 -4.401,-1.517 -6.342,-1.412" fill="#ffffff" stroke="#808083" stroke-width="1.354" stroke-linejoin="round"/><path d="M241.32,77.86l-2.124,-1.373 -4.603,1.07 -3.246,-0.66 -7.811,1.815 -6.363,1.479 6.18,0.728 6.03,-1.303 4.102,0.817 4.744,-1.267z" fill="#808083"/><path d="M202.498,31.503l12.562,-2.701 5.296,0.082 6.607,2.177 3.698,0.582 3.109,3.143 0.166,0.914 -14.21,-0.92 -4.113,-1.558 -7,-0.733 -7.896,0.085zM243.595,34.431l4.036,-3.824 5.73,-1.67 3.914,-3.625 -2.53,7.376 -3.825,1.61 -7.267,1.183z" fill="#808083"/><path d="M251.261,-21.65c-3.552,-8.595 -9.576,-18.392 -19.327,-24.706 -18.34,-11.873 -36.4,-10.302 -51.163,-4.616 -21.523,8.289 -31.852,23.273 -32.365,43.93 -0.354,14.228 2.338,22.833 3.916,26.21l0.17,0.095c0.413,-2.467 1.895,-5.485 4.341,-6.48 2.89,-1.175 5.74,-0.818 8.216,1.447 0.619,0.566 1.784,1.393 1.784,1.393s2.91,0.372 3.9,0.843c2.584,1.235 3.422,5.076 3.422,5.076l-0.495,9.025 7.243,0.121s0.426,-11.01 12.035,-13.74c3.808,-2.292 2.631,-14.711 2.631,-14.711l-4.842,-6.765s-3.97,-5.252 2,-10.586c5.97,-5.333 12.427,0.274 12.427,0.274s4.804,4.056 10.64,7.684c5.837,3.628 14.018,5.866 14.018,5.866s14.08,-3.092 17.869,-3.973c2.531,-0.589 3.58,-16.387 3.58,-16.387z" fill="#dbdbdc"/><path d="M225.868,60.585s-1.571,1.03 -1.623,2.382c-0.05,1.35 0.29,3.141 0.928,3.973 0.634,0.833 4.071,1.255 5.15,1.185 1.08,-0.07 3.314,0.038 4.594,0.584 1.277,0.546 1.955,1.938 3.008,2.336 1.057,0.399 3.23,0.03 4.126,-0.304 0.897,-0.335 3.347,-2.282 3.86,-3.122 0.515,-0.842 0.454,-3.117 0.454,-3.117s-1.736,-5.874 -2.027,-8.694c-0.288,-2.82 -0.181,-4.742 -0.394,-6.193 -0.215,-1.45 -1.106,-5.132 -1.412,-6.227 -0.308,-1.096 -1.503,-2.903 -1.662,-4.71a1.93,1.93 0,0 1,0.105 -0.771l0.098,-0.06c1.581,0.136 2.384,1.516 5.394,1.244 3.25,-0.294 5.6,-1.856 5.6,-1.856l-0.836,-2.34 0.052,-0.1c0.945,-0.208 1.593,-0.457 2.056,-0.845 1.896,-1.598 4.19,-5.39 4.141,-7.75 -0.05,-2.361 -1.485,-4.463 -1.587,-9.204 -0.103,-4.742 0.18,-16.58 -0.144,-21.936 -0.323,-5.355 -5.48,-29.543 -23.816,-41.416 -18.339,-11.872 -36.4,-10.301 -51.162,-4.616 -21.524,8.29 -31.853,23.274 -32.366,43.931 -0.354,14.227 2.339,22.833 3.916,26.209" fill="none" stroke="#808083" stroke-width="1.354" stroke-linejoin="round" fill-rule="evenodd"/><path d="M171.505,47.517s-3.682,0.983 -5.43,-0.534c-1.443,-1.251 -3.802,-4.051 -5.69,-5.224 -3.05,-1.897 -5.142,-6.755 -6.06,-9.303 -0.918,-2.548 -1.943,-9.254 -1.955,-11.828 -0.012,-2.572 1.54,-6.656 4.464,-7.845 2.89,-1.175 5.74,-0.818 8.216,1.447 2.475,2.264 4.89,5.917 5.826,6.565 0.935,0.646 2.142,0.783 2.142,0.783" fill="none" stroke="#808083" stroke-width="1.354" fill-rule="evenodd"/><path d="M164.807,61.887s-1.601,10.161 0.323,17.346c1.924,7.185 9.063,12.838 18.22,17.774a292.073,292.073 0,0 0,17.711 8.737l7.818,-5.079 -15.794,-7.339 -17.026,-10.11 -5.078,-5.627 -5.277,-9.276 -0.897,-6.426zM165.715,39.397l-2.783,-3.308 -0.723,-3.657 1.593,-2.64 2.71,-0.629 3.603,0.978 -2.854,1.96 0.489,2.933 1.587,2.354 0.313,2.456 -1.416,0.33zM293.264,108.376s0.241,34.213 -10.819,50.37c-11.06,16.158 -29.604,24.88 -29.372,26.956 0.099,0.882 -0.13,5.302 -0.427,10.089 -0.4,6.463 -0.92,13.595 -0.92,13.595l16.018,-14.567 13.724,-14.498 11.247,-16.962 5.313,-14.685 1.737,-19.3 -2.317,-13.239 -4.95,-12.145 0.766,4.386zM57.516,327.8s21.422,-14.24 32.762,-18.676c11.34,-4.437 33.004,-9.856 37.508,-11.963 4.505,-2.108 25.707,-15.875 27.896,-21.117 2.187,-5.244 5.218,1.852 11.356,-0.746 6.137,-2.6 23.201,-13.958 23.201,-13.958 -4.566,5.475 -8.234,9.596 -11.005,12.362 -1.487,1.486 -4.206,3.744 -8.156,6.773l-11.906,3.962 -31.321,20.437 -16.52,6.14 -17.055,4.778 -36.76,12.007z" fill="#808083"/><path d="M239.536,184.819a9.871,9.28 126.477,1 0,14.924 11.034a9.871,9.28 126.477,1 0,-14.924 -11.034z" fill="#dedfdf"/><path d="M241.758,186.427a8.564,8.051 126.477,1 0,12.948 9.573a8.564,8.051 126.477,1 0,-12.948 -9.573z" fill="#ffffff" stroke="#bfbfc1" stroke-width="0.931"/><path d="M254.77,195.892c1.234,-1.605 1.825,-3.462 1.82,-5.263 0.313,-3.116 -0.93,-6.211 -3.597,-8.108 -4.176,-2.97 -10.256,-1.872 -13.58,2.45 -3.323,4.323 -2.632,10.235 1.544,13.204 2.667,1.896 6.109,2.132 9.115,0.931a9.17,9.17 0,0 0,4.698 -3.215z" fill="none" stroke="#808184" stroke-width="0.931" fill-rule="evenodd"/><path d="M247.446,185.702h0.106c0.54,0 0.99,0.416 1.032,0.955l0.121,1.571a0.985,0.985 0,0 1,-0.981 1.061h-0.106c-0.54,0 -0.99,-0.416 -1.032,-0.955l-0.122,-1.572a0.985,0.985 0,0 1,0.982 -1.06z" fill="#f2f4f5" stroke="#bfbfc1" stroke-width="0.69" fill-rule="evenodd"/><path d="M239.536,184.819a9.871,9.28 126.477,1 0,14.924 11.034a9.871,9.28 126.477,1 0,-14.924 -11.034z" fill="#dedfdf"/><path d="M241.758,186.427a8.564,8.051 126.477,1 0,12.948 9.573a8.564,8.051 126.477,1 0,-12.948 -9.573z" fill="#ffffff" stroke="#bfbfc1" stroke-width="0.931"/><path d="M254.77,195.892c1.234,-1.605 1.825,-3.462 1.82,-5.263 0.313,-3.116 -0.93,-6.211 -3.597,-8.108 -4.176,-2.97 -10.256,-1.872 -13.58,2.45 -3.323,4.323 -2.632,10.235 1.544,13.204 2.667,1.896 6.109,2.132 9.115,0.931a9.17,9.17 0,0 0,4.698 -3.215z" fill="none" stroke="#808184" stroke-width="0.931" fill-rule="evenodd"/><path d="M253.338,187.312l0.069,0.083a1.035,1.035 0,0 1,-0.068 1.404l-1.125,1.103a0.984,0.984 0,0 1,-1.443 -0.07l-0.07,-0.083a1.035,1.035 0,0 1,0.069 -1.403l1.124,-1.104a0.984,0.984 0,0 1,1.444 0.07z" fill="#f2f4f5" stroke="#bfbfc1" stroke-width="0.69" fill-rule="evenodd"/><path d="M79.388,183.454l15.504,2.643 9.683,2.822 8.96,0.98 35.876,-2.632 42.976,-14.411 -0.119,60.513 -42.874,-7.894 -9.97,2.969 -24.07,16.484 -20.904,6.853 -16.86,0.09z" fill="#f5f5f5"/><path d="M148.35,186.959c9.187,-1.91 16.425,-5.288 16.425,-5.288l24.152,-8.224s5.264,-1.338 6.463,-1.093c1.2,0.245 13.766,2.212 17.148,2.63 3.383,0.42 8.208,0.506 9.347,0.602 1.138,0.096 10.741,2.419 12.382,2.723 1.64,0.304 10.302,-0.248 11.157,0.05 0.856,0.299 2.058,3.478 0.164,6.021 -1.893,2.544 -11.51,5.002 -13.275,5.14 -1.765,0.14 -6.756,-0.927 -9.31,-0.667 -2.554,0.26 -6.056,1.25 -8.202,2.211" fill="#f5f5f5" stroke="#808083" stroke-width="1.466"/><path d="M64.811,187.268s5.167,-2.235 10.799,-2.83c5.632,-0.594 11.728,0.452 13.586,0.49 3.717,0.077 14.885,5.625 26.297,5.078 11.413,-0.547 23.67,-1.139 32.857,-3.047 9.187,-1.91 16.425,-5.288 16.425,-5.288l24.152,-8.224s5.264,-1.338 6.463,-1.093c1.2,0.245 13.766,2.212 17.148,2.63 3.383,0.42 8.208,0.506 9.347,0.602 1.138,0.096 10.741,2.419 12.382,2.723 1.64,0.304 10.302,-0.248 11.157,0.05 0.856,0.299 2.058,3.478 0.164,6.021 -1.893,2.544 -11.51,5.002 -13.275,5.14 -1.765,0.14 -6.756,-0.927 -9.31,-0.667 -2.554,0.26 -6.056,1.25 -8.202,2.211" fill="none" stroke="#808083" stroke-width="1.466" stroke-linecap="round" fill-rule="evenodd"/><path d="M101.197,188.013l-2.141,-16.068 1.166,-18.976 2.494,-10.174c-6.072,5.76 -6.677,18.556 -10.163,23.314 -2.745,3.747 -4.201,6.382 -6.16,10.59 -1.899,4.08 -2.412,7.761 -2.412,7.761l17.216,3.553z" fill="#808083"/><path d="M224.061,228.077s-2.43,5.164 -4.375,6.685c-1.947,1.52 -17.733,3.308 -17.733,3.308s-3.882,1.022 -6.024,0.938c-2.143,-0.083 -3.138,-0.961 -4.599,-1.444 -1.46,-0.482 -18.842,-3.311 -21.085,-4.506 -2.243,-1.195 -6.549,-3.566 -9.297,-5.33 -2.747,-1.765 -8.963,-2.665 -12.552,-2.333 0,0 -4.394,0.575 -8.281,2.078 -3.887,1.503 -13.226,12.65 -29.464,19.652 -9.742,4.201 -22.42,5.953 -28.992,6.034 -6.572,0.08 -18.546,-1.172 -18.546,-1.172l-15.211,-6.066s-7.603,-1.483 -8.592,-3.35c-0.99,-1.865 -3.586,-14.362 -3.586,-14.362s-1.27,-6.676 -0.371,-8.987c0.899,-2.312 5.343,-10.701 5.343,-10.701s1.93,-5.193 4.174,-9.118l5.906,-12.576c0.803,-1.942 4.956,-12.635 8.745,-21.624 3.789,-8.99 12.459,-31.104 13.487,-32.57 1.926,-2.743 5.895,-19.663 9.469,-24.611s10.38,-13.942 13.36,-16.2" fill="none" stroke="#808083" stroke-width="1.373" stroke-linecap="round" fill-rule="evenodd"/><path d="M234.92,208.151s0.636,1.606 0.98,3.38c0.342,1.776 -1.29,6.355 -3.308,6.695 -2.018,0.34 -21.862,-2.115 -24.785,-1.84 -2.922,0.275 -5.394,2.27 -5.394,2.27" fill="none" stroke="#808083" stroke-width="1.43" stroke-linecap="round" fill-rule="evenodd"/><path d="M229.653,218.328s0.97,1.814 0.55,3.791c-0.42,1.978 -2.497,4.843 -3.689,5.38 -1.192,0.539 -4.225,0.642 -4.225,0.642l-9.456,-0.406s-7.346,0.324 -9.83,0.463c-2.482,0.139 -4.328,1.563 -4.328,1.563" fill="none" stroke="#808083" stroke-width="1.43" fill-rule="evenodd"/><path d="M200.933,187.257c5.226,0.386 14.764,5.265 20.81,5.944 6.047,0.679 10.153,1.866 10.153,1.866s1.646,0.006 3.686,0.468 4.265,1.352 4.265,1.352l9.326,1.849 5.197,1.761s2.65,1.091 3.82,1.732c1.17,0.642 0.423,3.581 -0.106,4.95 -0.529,1.37 -6.655,2.06 -6.655,2.06l-7.429,-0.433 -15.959,-0.89s-12.723,-1.951 -15.089,-2.01c-2.365,-0.06 -7.425,1.181 -7.425,1.181" fill="#f5f5f5" stroke="#808083" stroke-width="1.43" stroke-linecap="round"/><path d="M235.093,208.361l0.818,5.467 -2.854,4.465 -3.11,-0.181 0.187,5.06 -3.439,4.452 -2.707,0.57 -2.248,4.929 30.92,-23.41zM139.892,226.838c5.974,-3.08 8.678,-8.925 17.645,-7.067 6.28,1.302 9.588,6.151 15.011,8.156 5.424,2.006 16.714,4.975 16.714,4.975s9.167,1.257 13.008,1.327c3.842,0.07 8.49,-0.595 11.376,-1.018 2.886,-0.423 5.992,-4.913 5.992,-4.913l4.174,0.085 -2.996,5.41 -2.402,1.875 -15.8,2.138 -6.336,1.335 -5.716,-1.9 -20.318,-4.182 -12,-6.513 -8.851,-1.07 -9.5,1.362z" fill="#808083"/><path d="M214.801,191.065l8.202,-2.211 9.31,0.668 7.113,-2.265 -1.233,5.026 0.532,4.42 -6.829,-1.636 -7.653,-2.045zM217.241,216.782s3.354,-1.864 5.06,-1.868c1.708,-0.004 8.85,-0.418 9.943,-1.677 1.092,-1.259 2.677,-5.085 2.677,-5.085l0.809,4.952 -2.562,5.225 -16.635,-0.845 0.708,-0.702z" fill="#808083"/><path d="M211.383,226.516s3.354,-1.865 5.061,-1.869c1.707,-0.003 8.85,-0.418 9.942,-1.677 1.093,-1.258 2.677,-5.085 2.677,-5.085l0.81,4.952 -3.178,4.787 -16.02,-0.407 0.708,-0.701zM123.878,240.174l-19.718,9.294 -16.297,3.275 -27.625,-1.305 -14.347,-5.333 -6.89,-4.837 -3.67,-15.597s6.864,7.795 8.293,10.229c1.428,2.433 22.77,9.605 33.525,8.88 10.755,-0.724 22.014,-3.09 28.736,-4.853 6.722,-1.762 26.605,-9.88 30.806,-10.167l-12.813,10.414z" fill="#808083"/></g></g></svg>