<svg xmlns="http://www.w3.org/2000/svg" viewBox="0 0 315.0 288.0" data-vw="315.0" data-vh="288.0" preserveAspectRatio="xMidYMid meet"><defs><clipPath id="f2_cp1"><path d="M-45,0L315,0L315,288L-45,288z"/></clipPath></defs><g clip-path="url(#f2_cp1)"><path d="M125,80c-0.62,-2.28 -0.84,-17.26 -0.22,-20.36 0.62,-3.1 1.04,-8.64 1.04,-8.64s7.4,-17.67 10.43,-23.64c3.03,-5.97 2.21,-10.66 6,-17.33 3.79,-6.67 7.23,-13.94 12.19,-23 4.96,-9.06 9.32,-16.67 14.42,-24.92S173,-47.83 177,-55.54c4,-7.71 12.9,-8.41 19.28,-7.46 6.38,0.95 13.63,2.4 19.3,2.56 5.67,0.16 17.28,-1.29 30.28,-1.17 13,0.12 29.08,1.61 37.57,2.23 8.49,0.62 23.49,-0.05 23.49,-0.05 7.62,0.12 83.22,-14.4 88.23,-15.77" fill="none" stroke="#929496" stroke-width="1.25" fill-rule="evenodd"/><path d="M156.33,54.13c2.965,-3.815 5.67,-7.824 8.1,-12C167.19,37 169.94,30 169.94,30s7.62,-8 9.27,-10.86c1.65,-2.86 4.93,-10.65 4.93,-10.65s7.94,1.84 11.42,1.14C199.62,12 209.77,19.81 209.77,19.81" fill="none" stroke="#929496" stroke-width="1.25" fill-rule="evenodd"/><path d="M91.17,140.23s-3.94,0.64 -11.14,5.69c-7.2,5.05 -15.03,14.29 -18.56,17.75 -3.53,3.46 -11.25,9.59 -14.18,12.15 -2.93,2.56 -7.29,9.3 -11.29,13.67C32,193.86 23.32,205.17 19.54,210c-3.78,4.83 -8.7,11.59 -11.54,14.53 -2.84,2.94 -3.33,5.16 -4.39,8.29 -0.954,2.586 -1.625,5.269 -2,8 -0.46,3.19 1.91,7.89 2.21,12.85 0.3,4.96 3.57,33.42 3.49,37.5 -0.08,4.08 -1.82,11.21 -4.17,17.33 -2.35,6.12 -7.34,17.82 -14.49,25S-58.61,370.41 -58.61,370.41M140.15,195.82s-1.37,4.28 -2.7,8.19c-1.686,4.559 -3.732,8.976 -6.12,13.21 -1.56,3.53 -7,15 -8.88,17.86 -1.353,1.963 -2.972,3.73 -4.81,5.25 -1.67,3 -12.06,20.58 -12.06,20.58 0.431,2.004 0.633,4.05 0.6,6.1 -0.19,2.51 -2.25,29.76 -4.93,42.8 -0.634,10.13 -2.653,20.127 -6,29.71 -2.77,8 -7.4,24.07 -20.52,37.05 -13.12,12.98 -21.55,21.63 -34.88,39C26.52,432.94 16.7,446 16.7,446" fill="none" stroke="#929496" stroke-width="1.25" fill-rule="evenodd"/><path d="M180.07,204.64c2,-3.48 -10.3,-14.5 -30,-27.79" fill="none" stroke="#4285dd" stroke-width="3.0" stroke-linecap="round" fill-rule="evenodd"/><path d="M88.76,212.38C78.58,206.56 70,199.31 64.67,192c-5.33,-7.31 -6.92,-14.14 -4.24,-18.83l16.36,-28.66c-0.79,-1.35 -1,-2.42 -0.52,-3.19l4.09,-7.17c-2.69,-2.85 -3.65,-4.83 -3,-6.06l3.59,-6.29 0.65,0.37c-0.49,0.87 2.06,4.17 10.85,10.65 9.83,7.054 20.043,13.56 30.59,19.49 10.47,6.064 21.262,11.552 32.33,16.44 3.386,1.506 6.875,2.77 10.44,3.78 3.5,0.89 4.13,0.34 4.24,0.15l0.65,0.37 -3.59,6.29c-0.7,1.22 -2.9,1.4 -6.72,0.54L156.35,187c-0.44,0.77 -1.46,1.17 -3,1.18L137,216.82c-2.68,4.7 -9.21,6.8 -18.37,5.92 -9.16,-0.88 -19.69,-4.55 -29.87,-10.36z" fill="#ffffff"/><path d="M122.91,152.595a6,51.3 119.73,1 0,5.951 -10.42a6,51.3 119.73,1 0,-5.951 10.42z" fill="#cbcbcb"/><path d="M170.42,172.81c1.65,-2.87 -17,-16.59 -41.57,-30.64S83,119.06 81.33,121.94" fill="none" stroke="#989898" stroke-width="1.5" fill-rule="evenodd"/><path d="M127.25,145c-14.83,-8.47 -27.18,-16.43 -32.19,-20.6l-17.45,30.56c-0.69,1.202 -0.66,2.688 0.08,3.86 3.6,5.65 11.37,12.71 21.56,19.33 1.288,0.864 3.022,0.604 4,-0.6l3.54,-4.27c0.464,-0.563 1.266,-0.711 1.9,-0.35l3.84,2.19c0.631,0.367 0.909,1.134 0.66,1.82l-1.88,5.23c-0.52,1.436 0.122,3.033 1.49,3.71 10.94,5.46 21.05,8.6 27.78,8.83 1.389,0.04 2.685,-0.691 3.37,-1.9l17.45,-30.56C155.22,160 142.08,153.43 127.25,145z" fill="#ebb650" stroke="#808080" stroke-width="1.5"/><path d="M127.25,145c-14.83,-8.47 -27.18,-16.43 -32.19,-20.6l-17.45,30.56c-0.69,1.202 -0.66,2.688 0.08,3.86 3.6,5.65 11.37,12.71 21.56,19.33 1.288,0.864 3.022,0.604 4,-0.6l3.54,-4.27c0.464,-0.563 1.266,-0.711 1.9,-0.35l3.84,2.19c0.631,0.367 0.909,1.134 0.66,1.82l-1.88,5.23c-0.52,1.436 0.122,3.033 1.49,3.71 10.94,5.46 21.05,8.6 27.78,8.83 1.389,0.04 2.685,-0.691 3.37,-1.9l17.45,-30.56C155.22,160 142.08,153.43 127.25,145z" fill="#eebd61" stroke="#808080" stroke-width="0.75"/><path d="M119.996,140.837l14.31,8.173 -1.05,1.84c-0.822,1.44 -2.655,1.94 -4.094,1.118l-9.1,-5.197c-1.439,-0.822 -1.94,-2.654 -1.118,-4.093L119.996,140.838h0z" fill="none" stroke="#808080" stroke-width="0.5" fill-rule="evenodd"/><path d="M126.83,150.62L122.43,148.11 122.18,142.07 132.15,147.76z" fill="#808080" stroke="#808080" stroke-width="0.19"/><path d="M95.23,128.4L96.6,125l3.4,2 -2.2,2.88c-1.201,1.593 -2.297,3.264 -3.28,5L87.4,147.35c-0.15,0.26 -0.34,0.41 -0.41,0.32l-1.39,-1.18c0,-0.08 0,-0.29 0.12,-0.5l6.94,-12.17c0.978,-1.747 1.836,-3.558 2.57,-5.42h0zM157.62,164l2.21,-2.88 -3.37,-1.92 -1.36,3.36c-0.75,1.836 -1.622,3.62 -2.61,5.34l-7.12,12.47c-0.15,0.26 -0.18,0.51 -0.07,0.52l1.73,0.59c0.09,0 0.25,-0.14 0.37,-0.35L154.35,169c0.976,-1.738 2.069,-3.409 3.27,-5h0z" fill="#808080" stroke="#808080" stroke-width="0.19"/><path d="M184.53,119.34c0.854,-9.586 3.383,-18.947 7.47,-27.66 3.45,-1.23 3.92,-2.7 4.59,-3.88 0.649,-1.269 0.718,-2.756 0.19,-4.08h0C187.24,63.941 166.492,52.094 144.61,53.93h0c-1.47,0.046 -2.79,0.91 -3.42,2.24 -0.67,1.17 -1.69,2.33 -1,5.92 -5.415,7.958 -12.184,14.903 -20,20.52 -11.57,8.2 -12,11.89 -12,11.89l-1.12,2 72.19,41.22 1.12,-2s2.97,-2.25 4.15,-16.38z" fill="#ffffff" stroke="#989898" stroke-width="1.5" stroke-linecap="round"/><path d="M184.53,119.34c0.854,-9.586 3.383,-18.947 7.47,-27.66 3.45,-1.23 3.92,-2.7 4.59,-3.88 0.649,-1.269 0.718,-2.756 0.19,-4.08h0C187.24,63.941 166.492,52.094 144.61,53.93h0c-1.47,0.046 -2.79,0.91 -3.42,2.24 -0.67,1.17 -1.69,2.33 -1,5.92 -5.415,7.958 -12.184,14.903 -20,20.52 -11.57,8.2 -12,11.89 -12,11.89l-1.12,2 72.19,41.22 1.12,-2s2.97,-2.25 4.15,-16.38z" fill="none" stroke="#989898" stroke-width="0.75" stroke-linecap="round" fill-rule="evenodd"/><path d="M144.16,68.65c2.93,-5.13 0.63,-8.43 -0.82,-9.74 -1.45,-1.31 -2.91,-2 -3.32,0.33M184.38,91.61c2.93,-5.12 6.94,-4.82 8.8,-4.24 1.86,0.58 3.23,1.48 1.41,3" fill="none" stroke="#989898" stroke-width="0.75" stroke-linecap="round" fill-rule="evenodd"/><path d="M145.09,113.73c-24.6,-14 -45.41,-23.94 -46.46,-22.09l-3.21,5.62L94,99.72c-0.224,0.454 -0.074,1.003 0.35,1.28L102,105.33l-2.32,4.06L99,109c-0.32,-0.179 -0.71,-0.173 -1.025,0.014 -0.315,0.188 -0.505,0.53 -0.5,0.895 0.005,0.367 0.205,0.702 0.525,0.881h0l0.64,0.36L97,114l-0.64,-0.36h0c-0.475,-0.273 -1.082,-0.113 -1.36,0.36 -0.146,0.235 -0.188,0.52 -0.116,0.787 0.072,0.268 0.252,0.493 0.496,0.623l0.64,0.36h0l-3.27,5.73c-0.88,1.54 14.59,12 34.55,23.43 19.96,11.43 36.87,19.39 37.75,17.85l2.43,-4.26 0.75,0.35c0.516,0.213 1.107,-0.034 1.32,-0.55 0.213,-0.516 -0.034,-1.107 -0.55,-1.32l-0.58,-0.27 1.68,-2.95 0.76,0.35c0.25,0.123 0.538,0.137 0.798,0.039 0.26,-0.099 0.467,-0.301 0.572,-0.559 0.12,-0.247 0.134,-0.533 0.038,-0.79 -0.097,-0.257 -0.295,-0.463 -0.548,-0.57l-0.59,-0.27 3.08,-5.39 7.58,4.33c0.45,0.256 1.023,0.1 1.28,-0.35l1.41,-2.46 3.21,-5.62c1.09,-1.83 -18,-14.72 -42.6,-28.76z" fill="#ffffff" stroke="#989898" stroke-width="2.0"/><path d="M102,105.33l-9.25,16.2c-0.88,1.54 14.59,12 34.55,23.43 19.96,11.43 36.87,19.39 37.75,17.85l9.25,-16.2L102,105.33z" fill="#ffffff" stroke="#989898" stroke-width="0.75"/><path d="M96,115.79l-0.64,-0.36c-0.247,-0.133 -0.426,-0.364 -0.495,-0.636 -0.068,-0.272 -0.02,-0.56 0.135,-0.794 0.13,-0.244 0.355,-0.424 0.623,-0.496 0.267,-0.072 0.552,-0.03 0.787,0.116h0c24.38,14 49.75,26.94 75.4,38.63 0.253,0.107 0.451,0.313 0.548,0.57 0.096,0.257 0.083,0.543 -0.038,0.79 -0.105,0.258 -0.312,0.46 -0.572,0.559 -0.26,0.098 -0.549,0.084 -0.798,-0.039C145.42,142.54 120.21,129.64 96,115.79zM99.72,121.48C122.2,134.23 145.55,146.21 169,157c0.336,0.154 0.564,0.475 0.6,0.842 0.034,0.368 -0.13,0.726 -0.43,0.94 -0.302,0.214 -0.694,0.252 -1.03,0.098C144.6,148 121.26,136.08 98.7,123.28M102.35,113.29L98,110.82h0c-0.503,-0.276 -0.686,-0.907 -0.41,-1.41 0.276,-0.503 0.907,-0.686 1.41,-0.41l4.38,2.47" fill="#ffffff" stroke="#989898" stroke-width="0.5" stroke-linecap="round" stroke-linejoin="round"/><path d="M145.09,113.73c-24.6,-14 -45.41,-23.94 -46.46,-22.09l-3.21,5.62c0.41,-0.73 20.69,10.08 45.3,24.12 24.61,14.04 44.21,26 43.8,26.75l3.21,-5.62c1.05,-1.85 -18.04,-14.74 -42.64,-28.78z" fill="#ffffff" stroke="#989898" stroke-width="0.5"/><path d="M184.52,148.13c0.41,-0.72 -19.2,-12.7 -43.8,-26.75 -24.6,-14.05 -44.89,-24.85 -45.3,-24.12L94,99.72c-0.224,0.454 -0.074,1.003 0.35,1.28l87.47,49.94c0.45,0.256 1.023,0.1 1.28,-0.35l1.41,-2.46h0.01z" fill="#ffffff" stroke="#989898" stroke-width="0.5"/><path d="M170.42,172.81c-1.64,2.88 -22.91,-6.18 -47.52,-20.23C98.29,138.53 79.68,124.81 81.33,121.94l-3.59,6.29c-2.13,3.72 16.09,18.13 40.69,32.18 24.6,14.05 46.28,22.42 48.4,18.69l3.59,-6.29h0z" fill="#cbcbcb" stroke="#989898" stroke-width="0.5"/><path d="M118.43,160.41c-17.33,-9.89 -31.49,-20 -37.61,-26.36l-4.23,7.4c-2.12,3.73 13.93,16.9 35.87,29.43C134.4,183.41 153.9,190.53 156,186.81l4.23,-7.41c-8.59,-2.02 -24.47,-9.09 -41.8,-18.99z" fill="#cbcbcb"/><path d="M112.46,170.88c-17.84,-10.19 -31.8,-20.81 -35.24,-26.42L60.76,173.3c-5.39,9.44 7.23,26.78 28.19,38.75 20.96,11.97 42.31,14 47.7,4.58l16.46,-28.84c-6.58,-0.11 -22.81,-6.73 -40.65,-16.91z" fill="#cbcbcb"/><path d="M170.42,172.81c-1.64,2.88 -22.91,-6.18 -47.52,-20.23 -24.61,-14.05 -43.22,-27.77 -41.57,-30.64l-3.59,6.29c-2.13,3.72 16.09,18.13 40.69,32.18 24.6,14.05 46.28,22.42 48.4,18.69l3.59,-6.29h0z" fill="none" stroke="#989898" stroke-width="0.75" fill-rule="evenodd"/><path d="M118.43,160.41c-17.33,-9.89 -31.49,-20 -37.61,-26.36l-4.23,7.4c-2.12,3.73 13.93,16.9 35.87,29.43C134.4,183.41 153.9,190.53 156,186.81l4.23,-7.41c-8.59,-2.02 -24.47,-9.09 -41.8,-18.99z" fill="none" stroke="#989898" stroke-width="0.5" fill-rule="evenodd"/><path d="M112.46,170.88c-17.84,-10.19 -31.8,-20.81 -35.24,-26.42L60.76,173.3c-5.39,9.44 7.23,26.78 28.19,38.75 20.96,11.97 42.31,14 47.7,4.58l16.46,-28.84c-6.58,-0.11 -22.81,-6.73 -40.65,-16.91z" fill="none" stroke="#989898" stroke-width="0.5" fill-rule="evenodd"/><path d="M88.76,212.38C78.58,206.56 70,199.31 64.67,192c-5.33,-7.31 -6.92,-14.14 -4.24,-18.83l16.36,-28.66c-0.79,-1.35 -1,-2.42 -0.52,-3.19l4.09,-7.17c-2.69,-2.85 -3.65,-4.83 -3,-6.06l3.59,-6.29 0.65,0.37c-0.49,0.87 2.06,4.17 10.85,10.65 9.83,7.054 20.043,13.56 30.59,19.49 10.47,6.064 21.262,11.552 32.33,16.44 3.386,1.506 6.875,2.77 10.44,3.78 3.5,0.89 4.13,0.34 4.24,0.15l0.65,0.37 -3.59,6.29c-0.7,1.22 -2.9,1.4 -6.72,0.54L156.35,187c-0.44,0.77 -1.46,1.17 -3,1.18L137,216.82c-2.68,4.7 -9.21,6.8 -18.37,5.92 -9.16,-0.88 -19.69,-4.55 -29.87,-10.36z" fill="none" stroke="#989898" stroke-width="0.75" stroke-linejoin="round" fill-rule="evenodd"/><path d="M122.9,152.58C98.3,138.53 79.68,124.81 81.33,121.94l-3.59,6.29c-0.63,1.1 0.52,3.13 3.08,5.81h0l-4.23,7.4c-0.39,0.7 -0.16,1.71 0.63,3h0L60.76,173.3c-5.39,9.44 7.23,26.78 28.19,38.75 20.96,11.97 42.31,14 47.7,4.58l16.46,-28.84c1.51,0 2.52,-0.29 2.91,-1l4.23,-7.41c3.62,0.85 5.95,0.8 6.58,-0.3l3.59,-6.29c-1.64,2.9 -22.91,-6.16 -47.52,-20.21z" fill="none" stroke="#989898" stroke-width="0.75" stroke-linejoin="round" fill-rule="evenodd"/><path d="M111.18,173.11L89.97,210.26M118.41,177.08L97.36,213.94M125.28,180.57L104.57,216.85M131.75,183.6L111.59,218.91M137.3,185.89L117.8,220.03M142.25,187.71L123.64,220.31M145.88,188.74L128.13,219.82M149.1,189.46L132.64,218.29M104.09,168.91L83.04,205.77M97.59,164.76L76.87,201.04M91.69,160.72L71.53,196.04M86.9,157.11L67.41,191.26M82.81,153.78L64.2,186.37M80.08,151.18L62.34,182.25M77.83,148.77L61.37,177.59" fill="none" stroke="#999999" stroke-width="1.88" stroke-linecap="round" fill-rule="evenodd"/><path d="M62.54,129.75c-6.63,-2.58 -11.11,-3 -13.15,0.28 -3,4.93 24.06,25.81 60.14,46.41 36.08,20.6 67.67,33.23 70.54,28.2" fill="none" stroke="#4285dd" stroke-width="3.0" stroke-linecap="round" fill-rule="evenodd"/><path d="M63.49,122.11L72.36,134.15 57.5,135.82z" fill="#4285dd"/><path d="M26.28,227.19c6.68,2.95 16,5.75 18.55,3.27 2.55,-2.48 12,-15.16 14.73,-19.42 3.372,-5.281 6.305,-10.83 8.77,-16.59 2.14,-5.29 8.65,-15.4 11.83,-20.34 3.521,-5.412 7.538,-10.483 12,-15.15C95.51,155.72 98.32,155.3 100.55,155.79c2.23,0.49 11.55,4.26 13,9 1.45,4.74 0.6,14.37 -1.89,20.7 -2.49,6.33 -7.14,21.45 -13.34,27.62 -4.205,5.25 -7.559,11.129 -9.94,17.42 -2.85,7.38 -4.5,14.89 -2.32,31.22s1.62,36.83 0.14,46.15c-1.91,12.11 -4.67,29.71 -19.89,43.73" fill="#f5f5f5" stroke="#929496" stroke-width="1.0"/><path d="M93.74,157.66c-3.71,5.55 -11.21,19.23 -5.88,22.38 3.72,2.327 7.63,4.334 11.69,6 3.2,1.24 9.58,-5.08 14.33,-17" fill="none" stroke="#d0d2d3" stroke-width="0.75" fill-rule="evenodd"/><path d="M26.28,227.19c6.68,2.95 16,5.75 18.55,3.27 2.55,-2.48 12,-15.16 14.73,-19.42 3.372,-5.281 6.305,-10.83 8.77,-16.59 2.14,-5.29 8.65,-15.4 11.83,-20.34 3.521,-5.412 7.538,-10.483 12,-15.15C95.51,155.72 98.32,155.3 100.55,155.79c2.23,0.49 11.55,4.26 13,9 1.45,4.74 0.6,14.37 -1.89,20.7 -2.49,6.33 -7.14,21.45 -13.34,27.62 -4.205,5.25 -7.559,11.129 -9.94,17.42 -2.85,7.38 -4.5,14.89 -2.32,31.22s1.62,36.83 0.14,46.15c-1.91,12.11 -4.67,29.71 -19.89,43.73" fill="none" stroke="#929496" stroke-width="1.25" fill-rule="evenodd"/><path d="M195,-17.06s7.14,7.42 9,12c1.86,4.58 5.47,22.75 5.81,24.86 0.34,2.11 0.48,10.66 -1.22,14.3 -1.7,3.64 -10.46,18.64 -13.61,21.46 -5.863,5.391 -11.072,11.453 -15.52,18.06C173.87,82 166.13,94.88 165,96.91c-1.13,2.03 -5.17,9.74 -2.6,14.66S174.1,124 179.52,123.29c5.42,-0.71 15.41,-8.12 21.08,-13.29 5.67,-5.17 15.49,-16.78 20.71,-27.26 5.22,-10.48 20.78,-25.2 29.77,-28.14C260.07,51.66 273,49.78 289,42c11.224,-5.687 22.073,-12.087 32.48,-19.16l20.18,-5 82.13,-11.17" fill="#f5f5f5" stroke="#929496" stroke-width="1.0"/><path d="M162.28,108.32c2.68,-4 10.19,-13 14.51,-15.32 1.8,-1.2 6.39,0.81 11,4.52 4.61,3.71 7.42,7 6.21,10.17 -0.93,2.43 -8.09,12.29 -11.4,14.85" fill="none" stroke="#d0d2d3" stroke-width="0.75" fill-rule="evenodd"/><path d="M244.71,59.17c5.8,-4 34.33,-13.41 50.83,-24.46 17.27,-11.56 22.52,-24.71 28.14,-26.24 11,-3 13.71,13 26,11.25 -19.61,3.73 -22.68,4.56 -22.68,4.56l-8.86,2.32 -5,2.13 -6.55,6 -25,12.94 -36.88,11.5z" fill="#929496"/><path d="M195,-17.06s7.14,7.42 9,12c1.86,4.58 5.47,22.75 5.81,24.86 0.34,2.11 0.48,10.66 -1.22,14.3 -1.7,3.64 -10.46,18.64 -13.61,21.46 -5.863,5.391 -11.072,11.453 -15.52,18.06C173.87,82 166.13,94.88 165,96.91c-1.13,2.03 -5.17,9.74 -2.6,14.66S174.1,124 179.52,123.29c5.42,-0.71 15.41,-8.12 21.08,-13.29 5.67,-5.17 15.49,-16.78 20.71,-27.26 5.22,-10.48 20.78,-25.2 29.77,-28.14C260.07,51.66 273,49.78 289,42c11.224,-5.687 22.073,-12.087 32.48,-19.16l20.18,-5 82.13,-11.17" fill="none" stroke="#929496" stroke-width="1.25" fill-rule="evenodd"/><path d="M127.52,152.68c-0.444,0.651 -1.31,0.859 -2,0.48 -0.324,-0.176 -0.558,-0.481 -0.644,-0.84 -0.086,-0.358 -0.015,-0.736 0.194,-1.04l-1.62,-0.94c-0.447,0.648 -1.315,0.848 -2,0.46 -0.319,-0.186 -0.547,-0.495 -0.63,-0.855 -0.083,-0.36 -0.015,-0.738 0.19,-1.045l-1.83,-1.1c-0.399,0.418 -1.033,0.505 -1.53,0.21 -0.483,-0.29 -0.673,-0.896 -0.44,-1.41l-2.09,-1.29c-0.408,0.274 -0.942,0.274 -1.35,0 -0.417,-0.258 -0.622,-0.753 -0.51,-1.23l-2.19,-1.4c-0.37,0.178 -0.805,0.152 -1.15,-0.07 -0.338,-0.219 -0.539,-0.597 -0.53,-1l-2.25,-1.49c-0.37,0.18 -0.808,0.149 -1.15,-0.08 -0.33,-0.225 -0.526,-0.6 -0.52,-1l-2.22,-1.52c-0.37,0.178 -0.807,0.14 -1.14,-0.1 -0.342,-0.237 -0.535,-0.635 -0.51,-1.05l-2.21,-1.55c-0.368,0.173 -0.802,0.131 -1.13,-0.11 -0.338,-0.244 -0.527,-0.644 -0.5,-1.06 -0.73,-0.53 -1.46,-1 -2.18,-1.59 -0.37,0.17 -0.804,0.124 -1.13,-0.12 -0.332,-0.253 -0.515,-0.654 -0.49,-1.07l-2.16,-1.62c-0.365,0.169 -0.794,0.118 -1.11,-0.13 -0.332,-0.26 -0.513,-0.67 -0.48,-1.09 -0.67,-0.51 -1.34,-1 -2,-1.54l-3.21,4.84c-1.18,1.858 -0.746,4.31 1,5.65 11.038,8.39 22.613,16.05 34.65,22.93 1.923,1.065 4.341,0.483 5.57,-1.34l3.22,-4.85 -1.92,-1.04zM160.41,124.65c-11.78,-7.293 -23.837,-14.113 -36.17,-20.46 -1.948,-0.975 -4.319,-0.265 -5.41,1.62l-2.83,5.07 2.32,1.18c0.048,0.362 0.273,0.677 0.6,0.84 0.336,0.155 0.724,0.155 1.06,0 0.84,0.43 1.68,0.86 2.51,1.3 0.052,0.363 0.275,0.68 0.6,0.85 0.335,0.16 0.725,0.16 1.06,0l2.5,1.33c0.05,0.36 0.27,0.676 0.59,0.85 0.334,0.165 0.726,0.165 1.06,0l2.49,1.35c0.05,0.364 0.268,0.683 0.59,0.86 0.318,0.144 0.682,0.144 1,0l2.48,1.37c0.046,0.365 0.26,0.687 0.58,0.87 0.33,0.164 0.72,0.164 1.05,0l2.46,1.4c0.05,0.366 0.268,0.688 0.59,0.87 0.307,0.17 0.675,0.192 1,0.06l2.34,1.35c-0.032,0.455 0.196,0.89 0.59,1.12 0.377,0.244 0.863,0.244 1.24,0l2.28,1.34c0.01,0.41 0.228,0.788 0.58,1 0.352,0.206 0.788,0.206 1.14,0l2,1.18c-0.203,0.332 -0.263,0.731 -0.167,1.108 0.096,0.376 0.34,0.698 0.677,0.892 0.314,0.198 0.696,0.257 1.056,0.164 0.359,-0.092 0.664,-0.33 0.844,-0.654l1.6,1c-0.4,0.695 -0.174,1.581 0.51,2 0.311,0.198 0.69,0.259 1.049,0.168 0.357,-0.091 0.662,-0.325 0.841,-0.648l1.8,1.12 2.86,-5.07c1.043,-1.889 0.444,-4.262 -1.37,-5.43z" fill="#ffffff" stroke="#989898" stroke-width="0.73"/></g></svg>