<svg xmlns="http://www.w3.org/2000/svg" viewBox="0 0 360.0 269.0" data-vw="360.0" data-vh="269.0" preserveAspectRatio="xMidYMid meet"><defs><clipPath id="f0_cp1"><path d="M0,0H360V269H0z"/></clipPath><clipPath id="f0_cp2"><path d="M64,0L297,0L297,289.09L64,289.09z"/></clipPath></defs><g clip-path="url(#f0_cp1)"><g clip-path="url(#f0_cp2)"><path d="M136.83,125.89c2.26,-1.71 11.2,-6.82 11.2,-6.82" fill="none" stroke="#808083" stroke-width="1.039" stroke-linecap="round" fill-rule="evenodd"/><path d="M184.13,86.67S183.03,99.67 182.61,102c-0.96,5.34 -3.94,6.84 -3.94,6.84" fill="none" stroke="#808083" stroke-width="1.024" fill-rule="evenodd"/><path d="M178.58,108.58l-1.03,8.96 1.27,7 6.69,8.41 8.49,4.49 10.63,1.73 10.65,-2.61 6.25,-4.12 7.05,2.28 9.98,-1.29 2.93,-6.05 0.75,-5c1.19,-1.99 2.07,-3.4 2.62,-4.23 1.01,-1.53 2.12,-2.83 2.68,-3.85 0.98,-1.78 1.4,-2.99 1.26,-3.65l-0.03,-0.09 4.23,-0.31 12.57,1.7 5.98,5.31 5.28,2.44 7.56,4.24 3.86,5.17 3.2,6.3 1.98,8.32 1.37,7.95 0.2,12.89c0.09,3.13 0.03,5.44 -0.2,6.93 -0.22,1.4 -0.77,3.34 -1.66,5.79l-0.17,0.47 -14.82,33.27 -8.25,29.82 -3.32,4.93 -5.4,13.95 2.94,21.97 -0.61,15.59 2.57,4.97 -2.8,5.63 3.88,10.04 -4.52,5.45 -3.02,-5.15 -3.83,-0.47 -7.27,-5.6 -4.29,-0.85 -81.68,-0.62 -13.55,4.58 -4.24,-0.57 -12.62,-7.65 -1.24,-1.75 -0.14,-5.51 5.84,-4.15 22.55,-7.29 22.92,-15.63 11.38,-4.01c1.42,-0.69 3.28,-2.09 5.57,-4.2 2.2,-2.04 5.1,-5 8.69,-8.9l0.43,-0.47 6.84,-9.51 24.83,-18.21 11.9,-10.01 2.88,-2.77c0.72,-0.09 4.55,-0.61 4.92,-1.54 0.35,-0.91 0.83,-2.75 0.34,-3.5l13.3,-12.77 9.4,-10.77 4.72,-9.83c1.15,-3.64 1.96,-6.51 2.42,-8.59 0.46,-2.09 0.73,-4.08 0.81,-5.99 0.52,-2.64 0.75,-4.69 0.71,-6.16 -0.04,-1.39 -0.36,-3.37 -0.96,-5.94l-0.11,-0.46 -1.42,-7.03 -4.26,-8.39c-1.33,-2.33 -2.44,-3.99 -3.34,-4.99 -0.85,-0.94 -2.28,-2.15 -4.3,-3.64l-0.36,-0.26 -10.36,-2.79 -11.71,1.93 -4.73,3.18 -8.44,8.43 -9.51,13.12 -5.94,19.86 -7.29,11.02 -8.66,7.79v-0.17l-32.51,10.89 -27.14,1.99 -6.78,-0.74 -2.93,-0.86 -0.77,-12.36 -0.13,-13.37 3.29,-9.01 1.48,-22.66 0.58,-20.15 1.57,-3.17 4.85,-1.76 1.76,-1.82 19.3,-2.42 6.14,-3.11z" fill="#2196f3"/><path d="M140.64,172.25l2.41,-13.84s5.64,-20.26 7.3,-18.86c1.67,1.4 -4.52,20.9 -4.86,26.11 -0.34,5.21 14.03,-13.18 11.77,-8.34 -2.27,4.84 -13.66,20.65 -13.66,20.65l-4.04,9.81 0.33,-8.92 0.75,-6.62zM232.14,134.93c-4.56,3.41 -11.23,7.05 -17.75,6.88 -6.53,-0.17 -4.25,-2.45 -11.1,-3.41 8.39,1.18 15.51,-2.85 15.51,-2.85l3.26,-2.54 5.59,1.88 4.5,0.05zM225.1,168.29s-20.54,-8.04 -24.34,-9.8c-3.3,-1.53 -8.04,-7.52 4.68,-3.69 12.57,3.78 21.85,2.71 21.85,2.71l-2.18,10.78zM153.15,114.12s15.98,0.6 18.68,1.34c2.69,0.75 6.45,3.96 6.45,3.96l-0.13,-4.87 1.36,-5.85 -4.78,1.53 -2.27,1.69 -19.3,2.2zM151.98,197.46c-6.23,-2.48 0.91,-5 5.18,-3.71 2.8,0.84 15.38,3.43 20.81,4.08l-0.61,0.2 -21.23,1.56c-1.22,-0.77 -2.61,-1.52 -4.14,-2.13zM168.21,172c-8.83,-3.4 -5.39,-6.53 6.3,-2.92 4.56,1.4 12.42,2.82 20.31,4.02l1.22,0.18c11.53,1.73 22.78,2.98 23.53,3.06l0.04,0 -2.84,3.66 -5.6,5.83 -1.31,1.49v-0.19l-9.91,3.32c1.59,-1.43 3.07,-3.11 4.34,-5.08 1.1,-1.7 -9.66,-5.28 -19.85,-8.39l-1.03,-0.31c-6.7,-2.03 -12.96,-3.81 -15.2,-4.67z" fill="#1e88e5"/><path d="M140.88,198.59c-0.73,-5.73 -1.23,-9.8 -1.49,-12.22 -0.39,-3.62 0.65,-10.7 0.71,-13.71 0.06,-3.01 2.72,-8.01 2.72,-8.01s0.4,-8.57 1.08,-10.99c0.68,-2.42 0.4,-9.9 0.24,-13.81 -0.16,-3.92 0.5,-17.58 1.17,-19.41 0.68,-1.83 0.12,-3.06 5.22,-4.22 1.77,-0.4 0.4,-2.49 5.65,-2.84 5.25,-0.34 16.27,-1.67 16.27,-1.67s7.26,-4.8 7.15,-2.24c0,0 -2.14,6.24 -1.5,11.51 0.64,5.27 5.87,11.65 9.4,13.45 3.53,1.8 8.47,4.17 15.24,4.35 6.78,0.18 11.78,-1.95 15.54,-3.54 1.33,-0.56 2.47,-1.43 3.45,-2.51" fill="none" stroke="#1e88e5" stroke-width="1.024" fill-rule="evenodd"/><path d="M30.5,289.98c-0.61,-0.18 -2.16,-0.72 -2.63,-1.82 -0.58,-1.38 -1.3,-4.59 -1.3,-4.59s1.34,-4.09 3.33,-5.09c1.99,-1 11.65,-5.39 14.33,-6.63 2.68,-1.23 4.39,-2.87 6.04,-3.51 1.64,-0.64 4.74,-0.69 6.3,-0.35 0.99,0.21 2.63,1.95 2.63,1.95l12.68,8.9s11.34,4.09 15.32,3.53c3.99,-0.55 32,-18.07 36.99,-20.69 4.99,-2.63 14.89,-12.04 14.89,-12.04l5.14,-4.91" fill="none" stroke="#808083" stroke-width="1.024" fill-rule="evenodd"/><path d="M140.93,172.12l2.41,-13.82s5.63,-20.24 7.3,-18.84c1.67,1.4 -4.52,20.88 -4.86,26.09 -0.34,5.21 14.02,-13.17 11.76,-8.33 -2.27,4.84 -13.65,20.63 -13.65,20.63l-3.11,8.44 -0.6,-7.55 0.75,-6.61z" fill="#1e88e5"/><path d="M232.35,134.83c-4.56,3.41 -11.22,7.04 -17.74,6.87 -6.52,-0.17 -4.24,-2.45 -11.09,-3.4 8.39,1.17 15.49,-2.85 15.49,-2.85l3.26,-2.54 5.58,1.88 4.49,0.05zM225.32,168.17s-20.52,-8.03 -24.32,-9.79c-3.3,-1.53 -8.03,-7.51 4.67,-3.69 12.56,3.78 21.83,2.71 21.83,2.71l-2.18,10.77zM161.06,114.69s8.34,-0.06 11.03,0.68c2.69,0.74 6.44,3.96 6.44,3.96l-0.13,-4.87L179.76,108.62 174.98,110.15 161.06,114.69zM237.86,275.95s13.1,-3.19 16.56,-2.79c3.45,0.4 7.93,0.46 8.69,3.31 -0.24,-5.09 -1.8,-11.35 -1.8,-11.35l-22.83,8.78 -0.62,2.06zM272.91,118.01s-8.69,-2.38 -12.55,-2.11c-3.86,0.27 -9.56,2.99 -9.56,2.99s-5.79,-2.64 1,-4.84c6.78,-2.19 13.61,-1.71 13.61,-1.71l7.51,5.67z" fill="#1e88e5"/><path d="M152.26,197.31c-6.23,-2.47 0.91,-4.99 5.18,-3.71 2.86,0.86 15.92,3.54 21.14,4.12l-0.21,-0.02 -1.01,0.34 -20.77,1.52c-1.26,-0.82 -2.71,-1.6 -4.32,-2.24zM168.48,171.87c-8.82,-3.4 -5.38,-6.52 6.29,-2.92 4.44,1.37 12.16,2.77 20.04,3.98l1.24,0.19 1.24,0.19c10.77,1.6 21.2,2.8 23.25,3.04l0.2,0.02 0.16,0.02 -3.44,4.18 -6.06,5.13 -1.54,1.76 0,-0.32 -9.78,3.28c1.64,-1.45 3.15,-3.16 4.45,-5.18 0.99,-1.53 -7.59,-4.57 -16.73,-7.42l-1.04,-0.32 -1.04,-0.32c-7.44,-2.28 -14.79,-4.35 -17.25,-5.3zM285.74,179.96s-2.03,4.68 -4.3,10.02l-0.28,0.67 -0.86,2.04 -0.29,0.68c-1.38,3.3 -2.71,6.53 -3.6,8.82 -2.53,6.54 -10.08,9.19 -10.79,9.43l-0.05,0.02s-6.24,5.77 -13.07,11.88l-0.64,0.57 -0.32,0.29 -0.65,0.57 -0.65,0.57 -0.97,0.86c-2.8,2.47 -5.54,4.86 -7.86,6.8 -6.95,5.81 -8.88,10.32 -10.46,14.26l-0.19,0.48 -0.09,0.24 -0.19,0.47c-0.29,0.7 -0.58,1.39 -0.9,2.07 -1.51,3.15 -6.37,5.08 -11.5,6.92l-0.81,0.29c-2.3,0.82 -4.63,1.64 -6.7,2.56 -6.94,3.07 -7.49,6.73 -7.49,6.73s-0.57,6.67 4.76,8.87c11.68,6.11 -3.93,7.82 -7.06,6.62 -3.13,-1.21 -5.22,-2.47 -8.98,-3.91 -3.76,-1.45 -13.47,0.7 -16.36,5.19 -2.89,4.49 -14.69,7.11 -14.69,7.11s5.54,2.38 11.29,5.26l0.65,0.33c1.41,0.71 2.83,1.46 4.17,2.2 7,3.87 -0.71,5.18 -6.67,2.74 -5.96,-2.44 -16.34,-3.86 -22.43,-4.5 -6.09,-0.64 -9.03,3.29 -9.37,6.03 -0.34,2.74 6.87,5.66 9.37,6.63 2.5,0.96 8.66,-0.82 11.05,-1.05 2.39,-0.23 6.53,2.09 6.53,2.09l-6.51,1.22 -9.52,2.98 -4.24,-0.57 -9.83,-6.48 -4.01,-2.9 -0.14,-5.51 3.76,-2.07 2.08,-2.08 20.59,-6.7 4.88,-2.57 19.4,-13.39 11.7,-4.05c0.4,0.31 1.88,-0.72 4.44,-3.08 2.56,-2.36 6.05,-5.92 10.49,-10.69l6.6,-9.31 24.27,-18.82 14.8,-11.96 0.21,-0.2 0.21,0.01s4.34,-0.49 4.98,-1.46l0.05,-0.1c0.36,-0.94 0.87,-2.87 0.28,-3.57l15.6,-14.43zM276.83,216.11c-1.55,7.61 -9.85,12.62 -13.94,17.39 -4.09,4.77 -2.85,22.17 2.06,15.22 4.91,-6.96 6.06,-8.52 6.06,-8.52l5.83,-24.08z" fill="#1e88e5"/><path d="M214.32,245.6L223.67,235.5 228.84,234.61z" fill="#808083"/><path d="M136.8,295.29c-0.65,2.47 -5.05,2.89 -5.64,4.72 -0.59,1.83 0.07,7.05 3.14,7.8 3.65,0.88 9.43,8.14 14.31,7.3 4.88,-0.85 7.25,-3.63 19.44,-4.53 12.19,-0.89 72.87,0.92 77,0.27 4.13,-0.65 10.06,7.67 13.34,7.48 3.29,-0.19 3.99,4.82 3.99,4.82s4.73,-4.25 4.56,-6.01c-0.32,-3.31 -2.99,-7.32 -3.2,-9.59 -0.22,-2.26 2.71,-3.56 2.52,-5.57 -0.19,-2.01 -2.28,-2.57 -2.47,-5.85 -0.19,-3.28 1.48,-9.78 0.45,-15.26 -1.03,-5.48 -2.78,-14.55 -2.84,-19.35 -0.06,-4.81 4.45,-15.86 7.82,-18.73 3.38,-2.87 7.24,-29.03 9.7,-33.04 2.45,-4.01 10.05,-24.2 14.05,-31.52 3.99,-7.31 3.61,-41.39 -7.28,-52.86 -5.25,-5.53 -9.55,-5.47 -13.34,-7.82 -4.07,-2.52 -6.09,-5.91 -7.8,-5.94 -3.3,-0.06 -7.65,-1.32 -10.85,-1.32h-4.49" fill="none" stroke="#1e88e5" stroke-width="1.024" fill-rule="evenodd"/><path d="M256,214.41c-2.71,2.4 -4.89,4.22 -5.89,4.85l-0.23,0.15c-0.61,0.4 -1.31,0.9 -2.08,1.49l-0.68,0.53 -0.34,0.27 -0.69,0.56c-1.05,0.86 -2.13,1.78 -3.18,2.7l-0.53,0.47 -0.88,0.79 -26.11,19.75 -6.86,9.3 -2.1,2.25c-0.52,0.56 -1.04,1.11 -1.55,1.65l-2.01,2.13c-1.19,1.25 -2.15,2.25 -2.81,2.92l-0.47,0.47 -1.15,1.11 -0.68,0.64c-1.79,1.67 -3.12,2.68 -4.5,3.24l-0.17,0.07 -0.16,0.06c-0.43,0.15 -0.94,0.3 -1.62,0.46l-2.83,0.65c-0.87,0.21 -1.61,0.41 -2.32,0.63 -1.19,0.37 -2.23,0.79 -3.15,1.28 -0.8,0.43 -2.25,1.4 -4.62,3.08l-7.93,5.66 -1.22,0.85c-4.58,3.2 -7.86,5.29 -10.08,6.35l-0.39,0.18c-2.28,1.02 -9.06,3.17 -21.13,6.78l-21.28,6.34c-4.79,1.44 -7.5,2.3 -8.34,2.65l-0.19,0.08c-0.91,0.39 -1.99,0.96 -3.37,1.76l-0.66,0.39 -0.9,0.54 -2.9,1.76c-2.61,1.58 -3.29,1.94 -3.89,2.11l-0.17,0.04 -0.48,0.1c-0.11,0.02 -0.22,0.04 -0.32,0.06l-0.55,0.08 -1.2,0.15c-1.2,0.16 -1.82,0.28 -2.51,0.56l-0.1,0.04c-0.39,0.16 -2.72,1.7 -3.05,1.9l-0.31,0.18c-2.65,1.54 -5.1,2.24 -7.81,1.82l-6.47,-0.98c-3.68,-0.57 -5.49,-0.91 -6.3,-1.2l-0.14,-0.05 -0.1,-0.05c-0.18,-0.09 -0.36,-0.2 -0.54,-0.35 -0.18,-0.14 -0.35,-0.29 -0.57,-0.5l-0.62,-0.61c-0.56,-0.53 -0.79,-0.67 -0.88,-0.61 -0.3,0.16 -0.75,0.4 -1.3,0.67l-0.49,0.25c-1.54,0.76 -3.61,1.75 -5.24,2.48l-1.01,0.44 -0.45,0.19c-1.92,0.79 -7.51,0.7 -8.77,-0.31 -1.18,-0.95 -2.31,-2.59 -2.53,-3.63 -0.08,-0.39 0.03,-1.04 0.28,-1.97l0.13,-0.45c0.06,-0.2 0.12,-0.4 0.19,-0.61 0.13,-0.42 0.28,-0.84 0.42,-1.25l0.04,-0.12 0.15,-0.41 0.96,0.36 -0.32,0.91c-0.09,0.27 -0.18,0.54 -0.27,0.81 -0.06,0.2 -0.13,0.4 -0.18,0.59 -0.29,0.97 -0.44,1.71 -0.39,1.92 0.16,0.78 1.15,2.23 2.16,3.04 0.92,0.74 6.13,0.82 7.74,0.16 1.74,-0.71 5.12,-2.33 7.14,-3.34l0.77,-0.39 0.56,-0.3c0.65,-0.32 1.07,-0.08 2.09,0.91l0.29,0.29c0.33,0.33 0.53,0.51 0.73,0.67 0.14,0.1 0.26,0.18 0.37,0.24 0.56,0.27 2.56,0.65 6.87,1.31l5.85,0.88c2.53,0.39 4.85,-0.31 7.43,-1.87 0.24,-0.15 2.69,-1.76 3.18,-1.97l0.29,-0.11c0.68,-0.25 1.3,-0.39 2.35,-0.53l1.27,-0.16 0.34,-0.05 0.43,-0.07 0.51,-0.09c0.45,-0.09 0.82,-0.24 2.11,-0.99l1.15,-0.68 3.8,-2.3c2.2,-1.32 3.75,-2.17 5.02,-2.69 0.93,-0.38 3.86,-1.31 9.15,-2.89l21.48,-6.4c10.94,-3.29 17.36,-5.32 19.78,-6.33l0.3,-0.13c2.27,-1.01 5.88,-3.32 11.13,-7.01l1.19,-0.84 7.4,-5.28c1.88,-1.33 3.16,-2.19 4.01,-2.7l0.24,-0.14 0.21,-0.12c0.98,-0.52 2.08,-0.96 3.33,-1.35 0.63,-0.19 1.27,-0.37 2,-0.55l0.76,-0.18 2.67,-0.62c0.6,-0.15 1.05,-0.28 1.42,-0.42l0.14,-0.06c1.16,-0.48 2.36,-1.36 3.93,-2.81l0.54,-0.5 1.44,-1.39c0.5,-0.48 1.35,-1.36 2.49,-2.55l3.12,-3.29 3.36,-3.58 6.86,-9.32 0.1,-0.1 26.14,-19.77 0.22,-0.19 0.64,-0.58 0.53,-0.47c1.06,-0.93 2.15,-1.86 3.21,-2.72l0.35,-0.29 0.69,-0.55c1.17,-0.92 2.21,-1.68 3.08,-2.22l0.12,-0.07c0.86,-0.57 2.49,-1.91 4.54,-3.71l0.29,0.02s0.58,-0.07 1.35,-0.2zM252.68,124.26c9.13,-3.1 18.66,-3.36 24.88,0.51 4.51,2.81 10.8,12.62 12.95,21.97 1.46,6.35 1.59,10.99 0.71,16.29 -0.1,0.61 -0.21,1.23 -0.35,1.9l-0.26,1.28 -0.18,0.84 -1.04,4.7c-1.57,6.82 -5.53,13.43 -12.27,21.9l-0.81,1c-2.34,2.9 -9.78,10.15 -16.22,16.08 0.02,-0.48 -0.04,-0.91 -0.23,-1.18 0.77,-0.71 1.55,-1.43 2.33,-2.17l0.79,-0.74 0.79,-0.74 0.78,-0.75c4.56,-4.34 8.82,-8.6 10.7,-10.81l0.28,-0.33 0.41,-0.51c7.02,-8.76 11.06,-15.47 12.55,-22.37l1.21,-5.52c0.16,-0.77 0.29,-1.45 0.41,-2.1l0.11,-0.64c0.86,-5.16 0.73,-9.67 -0.7,-15.89 -2.09,-9.1 -8.23,-18.67 -12.49,-21.33 -5.9,-3.67 -15.14,-3.41 -24,-0.4 -3.08,1.04 -7.53,5.47 -12.51,12l-0.24,0.32c-3.66,4.84 -7.39,10.6 -8.56,13.03 -0.54,1.12 -1.14,2.87 -1.89,5.45l-0.21,0.73 -0.28,0.99 -2,7.3c-0.75,2.67 -1.12,3.81 -1.53,4.73l-0.14,0.31 -0.31,0.62c-1.44,2.86 -2.88,4.78 -6.6,9.01l-0.34,0.39c-3.65,4.08 -6.92,6.44 -11.44,8.09l-0.35,-0.96c4.5,-1.64 7.69,-4 11.37,-8.19 3.87,-4.4 5.21,-6.22 6.69,-9.26l0.11,-0.24c0.36,-0.77 0.67,-1.66 1.23,-3.59l0.47,-1.66 1.57,-5.75 0.58,-2.08c0.87,-3.03 1.54,-5.05 2.16,-6.33l0.08,-0.17c1.32,-2.64 5.14,-8.5 8.83,-13.35l0.29,-0.38c4.99,-6.48 9.42,-10.85 12.7,-11.97z" fill="#808083"/><path d="M189.97,92.03s-1.47,11.36 -0.83,14.25c0.64,2.89 3.53,8.36 7.3,12.1 3.76,3.73 20.85,12.23 20.85,12.23s8.28,3.57 10.43,3.91c2.15,0.34 10.03,-0.47 11.02,-1.5 0.99,-1.03 2.08,-3.93 2.71,-5.38 0.63,-1.45 0.22,-3.86 0.84,-5.47 0.62,-1.61 4.59,-6.84 5.31,-7.83 0.72,-0.98 1.61,-5.58 1.61,-5.58" fill="none" stroke="#808083" stroke-width="1.024" fill-rule="evenodd"/><path d="M194.06,92.41s-2.79,0.74 -4.11,-0.4c-1.09,-0.95 -2.88,-3.06 -4.3,-3.95 -2.31,-1.43 -3.89,-5.11 -4.58,-7.03 -0.69,-1.92 -1.47,-6.99 -1.48,-8.94 -0.01,-1.95 1.16,-5.03 3.38,-5.93 2.19,-0.89 4.34,-0.62 6.21,1.09 1.87,1.71 3.7,4.47 4.41,4.96 0.71,0.49 1.62,0.59 1.62,0.59M254.4,84.98s1.21,3.63 1.34,5.45c0.13,1.82 -0.36,3.35 -0.82,4.82 -0.37,1.16 -3.83,6.94 -4.42,9.03M226.74,117.6c1.43,-0.53 2.98,-0.59 3.51,-0.42 0.53,0.17 2.36,0.47 3.49,0.35 1.14,-0.12 4.14,-1.25 5.42,-0.77 1.26,0.82 3.02,0.61 4.06,-0.12 0.74,-0.51 2.53,-0.25 2.53,-0.25M243.7,119.86c-1.46,0.83 -2.2,1.24 -3.51,1.06 -1.31,-0.18 -2.68,0.22 -3.42,0.35 -0.9,0.17 -1.97,-0.28 -2.22,-0.44" fill="none" stroke="#808083" stroke-width="1.024" fill-rule="evenodd"/><path d="M182.63,75.99s-0.38,-1.62 -0.46,-3.04c0,0 0.01,-1.36 0.2,-2.11 0.53,-2.18 3.18,-2.51 4.73,-1.55 1.55,0.96 2.54,2.44 3.73,4.09 1.12,1.55 2.64,3.72 2.49,4.8 -0.15,1.07 -0.24,1.42 -0.24,1.42 -0.39,0.39 -1.85,0.07 -2.25,1.74 -0.4,1.67 0.79,2.38 1.49,3.07 0.69,0.68 0.35,1.97 0.35,1.97 -0.13,0.9 -1.6,0.72 -2.53,-0.49M247.78,89.29c0.23,0.83 0.91,3.61 1.07,4.71 0.16,1.1 0.08,2.55 0.3,4.68 0.22,2.13 1.53,6.57 1.53,6.57s0.05,1.72 -0.34,2.36c-0.39,0.63 -2.24,2.11 -2.92,2.36 -0.68,0.25 -2.32,0.53 -3.12,0.23 -0.8,-0.3 -1.31,-1.35 -2.28,-1.77 -0.97,-0.41 -2.66,-0.49 -3.47,-0.44 -0.82,0.05 -3.41,-0.27 -3.9,-0.89 -0.48,-0.63 -0.74,-1.98 -0.7,-3 0.04,-1.02 1.23,-1.8 1.23,-1.8" fill="none" stroke="#808083" stroke-width="1.024" fill-rule="evenodd"/><path d="M237.85,87.7s-0.3,-1.75 -2.13,-2.49c-0.6,-0.25 -1.4,-0.22 -2.29,-0.06l0.08,0.29 0.73,2.01s-3.28,1.5 -5.85,1.75c-2.57,0.25 -3.33,-1.15 -4.8,-1.07" fill="none" stroke="#808083" stroke-width="1.024" stroke-linejoin="round"/><path d="M246.87,115.34L245.26,114.31 241.78,115.11 239.32,114.61 233.42,115.99 228.6,117.1 233.28,117.65 237.84,116.67 240.94,117.29 244.53,116.33z" fill="#808083"/><path d="M217.5,80.31L227,78.27 231.01,78.33 236.01,79.97 238.8,80.42 241.16,82.79 241.28,83.48 230.53,82.79 227.42,81.61 222.13,81.05 216.16,81.12zM248.59,82.52L251.64,79.63 255.97,78.37 258.93,75.63 257.02,81.21 254.13,82.42 248.63,83.31zM254.39,40.14c-2.69,-6.5 -7.24,-13.9 -14.62,-18.67 -13.87,-8.97 -27.53,-7.79 -38.7,-3.49C184.79,24.24 176.98,35.57 176.59,51.18 176.32,61.93 178.36,68.43 179.55,70.99l0.13,0.07c0.31,-1.87 1.43,-4.15 3.28,-4.9 2.19,-0.89 4.34,-0.62 6.21,1.09 0.47,0.43 1.35,1.05 1.35,1.05s2.2,0.28 2.95,0.64c1.95,0.93 2.59,3.84 2.59,3.84l-0.37,6.82 5.48,0.09s0.32,-8.32 9.1,-10.39c2.88,-1.73 1.99,-11.12 1.99,-11.12l-3.66,-5.11s-3,-3.97 1.51,-8c4.52,-4.03 9.4,0.21 9.4,0.21s3.63,3.07 8.05,5.81c4.41,2.74 10.6,4.43 10.6,4.43s10.65,-2.34 13.52,-3c1.91,-0.44 2.71,-12.38 2.71,-12.38z" fill="#808083"/><path d="M235.18,102.29s-1.19,0.78 -1.23,1.8c-0.04,1.02 0.22,2.37 0.7,3 0.48,0.63 3.08,0.95 3.9,0.89 0.82,-0.05 2.51,0.03 3.47,0.44 0.97,0.41 1.48,1.47 2.28,1.77 0.8,0.3 2.44,0.02 3.12,-0.23 0.68,-0.25 2.53,-1.72 2.92,-2.36 0.39,-0.64 0.34,-2.36 0.34,-2.36s-1.31,-4.44 -1.53,-6.57c-0.22,-2.13 -0.14,-3.58 -0.3,-4.68 -0.16,-1.1 -0.84,-3.88 -1.07,-4.71 -0.23,-0.83 -1.14,-2.19 -1.26,-3.56 -0.02,-0.18 0.01,-0.38 0.08,-0.58l0.07,-0.04c1.2,0.1 1.8,1.14 4.08,0.94 2.46,-0.22 4.24,-1.4 4.24,-1.4l-0.63,-1.77 0.04,-0.08c0.71,-0.16 1.2,-0.34 1.55,-0.64 1.43,-1.21 3.17,-4.07 3.13,-5.86 -0.04,-1.78 -1.12,-3.37 -1.2,-6.96 -0.08,-3.58 0.14,-12.53 -0.11,-16.58 -0.24,-4.05 -4.14,-22.33 -18.01,-31.3C225.9,12.49 212.24,13.68 201.07,17.98 184.79,24.24 176.98,35.57 176.59,51.18 176.32,61.93 178.36,68.44 179.55,70.99" fill="none" stroke="#808083" stroke-width="1.024" stroke-linejoin="round" fill-rule="evenodd"/><path d="M194.06,92.41s-2.79,0.74 -4.11,-0.4c-1.09,-0.95 -2.88,-3.06 -4.3,-3.95 -2.31,-1.43 -3.89,-5.11 -4.58,-7.03 -0.69,-1.92 -1.47,-6.99 -1.48,-8.94 -0.01,-1.95 1.16,-5.03 3.38,-5.93 2.19,-0.89 4.34,-0.62 6.21,1.09 1.87,1.71 3.7,4.47 4.41,4.96 0.71,0.49 1.62,0.59 1.62,0.59" fill="none" stroke="#808083" stroke-width="1.024" fill-rule="evenodd"/><path d="M188.99,103.27s-1.21,7.68 0.24,13.11c1.46,5.43 6.86,9.7 13.78,13.43 6.93,3.73 13.4,6.6 13.4,6.6l5.91,-3.84 -11.95,-5.55 -12.88,-7.64 -3.84,-4.25 -3.99,-7.01 -0.68,-4.86zM189.68,86.28L187.58,83.78 187.03,81.01 188.23,79.02 190.28,78.54 193.01,79.28 190.85,80.76 191.22,82.98 192.42,84.76 192.66,86.61 191.59,86.86z" fill="#808083"/><path d="M285.58,135.09l3.74,9.18 1.75,10 -1.31,14.59 -4.02,11.1 -8.51,12.82 -10.38,10.96 -6.82,6.2c-0.07,-0.27 -0.2,-0.48 -0.41,-0.6 -0.88,-0.48 -2.89,-1.31 -2.89,-1.31l-1.5,-0.51 0.06,-0.99 0.04,-0.59 0.04,-0.59 0.05,-0.88c0.22,-3.62 0.4,-6.96 0.32,-7.62 -0.18,-1.57 13.85,-8.16 22.22,-20.37 7.78,-11.36 8.17,-34.51 8.18,-37.7v-0.37l-0.58,-3.32zM107.84,304.24s16.2,-10.76 24.78,-14.11c8.58,-3.35 24.96,-7.45 28.37,-9.04 3.41,-1.59 19.44,-12 21.1,-15.96 1.65,-3.96 3.95,1.4 8.59,-0.56 4.64,-1.96 17.55,-10.55 17.55,-10.55 -3.45,4.14 -6.23,7.25 -8.32,9.34 -1.13,1.12 -3.18,2.83 -6.17,5.12l-9.01,2.99 -23.69,15.44 -12.49,4.64 -12.9,3.61 -27.8,9.07zM140.88,198.59l-1.62,-12.14 0.88,-14.34 1.89,-7.69c-4.59,4.35 -5.05,14.02 -7.69,17.62 -2.08,2.83 -3.18,4.82 -4.66,8 -1.44,3.08 -1.83,5.86 -1.83,5.86l13.02,2.68z" fill="#808083"/><path d="M233.81,228.87s-1.84,3.9 -3.31,5.05c-1.47,1.15 -13.41,2.5 -13.41,2.5s-2.94,0.77 -4.56,0.71c-1.62,-0.06 -2.37,-0.73 -3.48,-1.09 -1.11,-0.37 -14.25,-2.5 -15.95,-3.41 -1.7,-0.9 -4.95,-2.69 -7.03,-4.03 -2.08,-1.33 -6.78,-2.01 -9.49,-1.76 0,0 -3.32,0.43 -6.26,1.57 -2.94,1.14 -10,9.56 -22.28,14.85 -7.37,3.17 -16.96,4.5 -21.93,4.56 -4.97,0.06 -14.03,-0.89 -14.03,-0.89l-11.51,-4.58s-5.75,-1.12 -6.5,-2.53c-0.75,-1.41 -2.71,-10.85 -2.71,-10.85s-0.96,-5.05 -0.28,-6.79c0.68,-1.75 4.04,-8.09 4.04,-8.09s1.46,-3.92 3.16,-6.89l4.47,-9.51c0.61,-1.47 3.75,-9.55 6.61,-16.34 2.87,-6.79 9.42,-23.51 10.2,-24.61 1.46,-2.07 4.46,-14.86 7.16,-18.6 2.7,-3.74 7.85,-10.54 10.1,-12.24" fill="none" stroke="#808083" stroke-width="1.039" stroke-linecap="round" fill-rule="evenodd"/><path d="M242.11,214.15s0.4,0.88 0.66,2.22c0.26,1.34 -0.98,4.8 -2.5,5.06 -1.53,0.26 -16.54,-1.6 -18.75,-1.39 -2.21,0.21 -4.08,1.72 -4.08,1.72" fill="none" stroke="#808083" stroke-width="1.082" stroke-linecap="round" fill-rule="evenodd"/><path d="M238.04,221.5s0.73,1.37 0.42,2.87 -1.89,3.66 -2.79,4.07c-0.9,0.41 -3.2,0.48 -3.2,0.48l-7.15,-0.31s-5.56,0.25 -7.43,0.35c-1.88,0.1 -3.27,1.18 -3.27,1.18" fill="none" stroke="#808083" stroke-width="1.082" fill-rule="evenodd"/><path d="M242.11,214.15L242.77,218.1 240.62,221.48 238.26,221.34 238.41,225.16 235.8,228.53 233.76,228.96 232.06,232.68 255.44,214.99zM170.15,227.93c4.52,-2.33 6.56,-6.74 13.35,-5.34 4.75,0.98 7.25,4.65 11.35,6.16 4.1,1.51 12.64,3.76 12.64,3.76s6.93,0.95 9.84,1c2.9,0.05 6.42,-0.45 8.6,-0.77s4.53,-3.71 4.53,-3.71l3.16,0.06 -2.27,4.09 -1.82,1.42 -11.95,1.62 -4.79,1.01 -4.32,-1.44 -15.37,-3.16 -9.08,-4.92 -6.7,-0.81 -7.19,1.03zM226.81,200.9L233.01,199.23 240.05,199.73 245.43,198.02 244.5,201.82 244.9,205.16 239.74,203.92 233.95,202.38z" fill="#808083"/><path d="M228.65,220.33s2.54,-1.41 3.83,-1.41c1.29,-0 6.69,-0.32 7.52,-1.27 0.83,-0.95 2.03,-3.84 2.03,-3.84l0.61,3.74 -1.94,3.95 -12.58,-0.64 0.54,-0.53z" fill="#808083"/><path d="M224.22,227.69s2.54,-1.41 3.83,-1.41c1.29,-0 6.69,-0.32 7.52,-1.27 0.83,-0.95 2.02,-3.84 2.02,-3.84l0.61,3.74 -2.4,3.62 -12.12,-0.31 0.54,-0.53zM158.04,238.01l-14.91,7.02 -12.33,2.47 -20.9,-0.99 -10.85,-4.03 -5.21,-3.66 -2.78,-11.79s5.19,5.89 6.27,7.73c1.08,1.84 17.22,7.26 25.36,6.71 8.14,-0.55 16.65,-2.34 21.74,-3.67 5.08,-1.33 20.12,-7.47 23.3,-7.68l-9.69,7.87z" fill="#808083"/></g><path d="M255.71,194.43c3.16,2.24 3.68,6.71 1.17,9.98 -0.9,1.17 -2.06,2.02 -3.33,2.54l-0.75,-0.25 -7.05,-1.4s-0.12,-0.05 -0.33,-0.13C243.93,203.42 243.48,201.01 244.16,198.75c2.42,-0.74 5.12,-1.81 5.93,-2.9 0.64,-0.86 0.81,-1.82 0.75,-2.63L251.06,193.19c1.63,-0.13 3.27,0.26 4.65,1.24z" fill="#dedfdf"/><path d="M256.25,195.59c2.91,2.07 3.39,6.17 1.09,9.16 -0.86,1.12 -1.99,1.93 -3.22,2.39l-1.31,-0.44 -5.87,-1.16c-1.8,-2.01 -2.05,-5.04 -0.58,-7.53 1.68,-0.64 3.17,-1.39 3.74,-2.16 0.28,-0.38 0.47,-0.77 0.59,-1.16l0.18,-0.05c1.84,-0.46 3.8,-0.17 5.39,0.95z" fill="#bfbfc1"/><path d="M248.35,205.85c-2.57,-1.83 -3,-5.48 -0.94,-8.16 2.07,-2.69 5.84,-3.37 8.43,-1.53 2.57,1.83 3,5.48 0.94,8.16 -2.07,2.69 -5.84,3.37 -8.43,1.53z" fill="#ffffff"/><path d="M255.9,194.15c2.07,1.47 3.12,3.9 2.87,6.41 0,1.48 -0.49,2.95 -1.45,4.19 -0.84,1.1 -1.97,1.91 -3.21,2.38l-1.08,-0.37c0.12,-0.04 0.24,-0.09 0.36,-0.13 1.33,-0.39 2.51,-1.19 3.37,-2.31 0.86,-1.12 1.31,-2.44 1.3,-3.8 0.23,-2.3 -0.71,-4.48 -2.57,-5.8C254.13,193.76 252.48,193.39 250.86,193.58 250.86,193.33 250.84,193.1 250.8,192.88l0.08,-0.01c1.75,-0.17 3.53,0.24 5.01,1.29zM244.56,198.63c-0.82,2.4 -0.28,5.01 1.48,6.73l-0.29,-0.06s-0.4,-0.16 -0.99,-0.36C243.53,203.21 243.18,200.99 243.75,198.87c0.27,-0.08 0.54,-0.16 0.81,-0.25z" fill="#808184"/><path d="M255.96,198.06l0.05,0.06c0.26,0.31 0.24,0.78 -0.05,1.06l-0.85,0.83c-0.29,0.29 -0.76,0.28 -1.05,-0.01l-0.04,-0.04 -0.05,-0.06c-0.26,-0.31 -0.24,-0.78 0.05,-1.06l0.85,-0.83c0.29,-0.29 0.76,-0.28 1.05,0.01l0.04,0.04z" fill="#f2f4f5" stroke="#bfbfc1" stroke-width="0.522" fill-rule="evenodd"/><path d="M216.32,198.02c3.95,0.29 11.17,3.98 15.74,4.49 4.57,0.51 7.68,1.41 7.68,1.41l6.01,1.38c3.24,0.57 5.6,1.03 7.05,1.4 1.46,0.36 2.77,0.81 3.93,1.33 0,0 2.01,0.82 2.89,1.31 0.88,0.49 0.32,2.71 -0.08,3.74 -0.4,1.04 -5.03,1.56 -5.03,1.56l-5.62,-0.33 -12.07,-0.67s-9.62,-1.48 -11.41,-1.52c-1.79,-0.05 -5.62,0.89 -5.62,0.89" fill="none" stroke="#808083" stroke-width="1.082" stroke-linecap="round"/><path d="M121.3,195.85c9.43,0 24.6,3.88 28.91,4.17 2.16,0.14 7.43,0.12 16.23,-0.79 1.95,-0.2 5.32,-0.68 10.11,-1.43 6.95,-1.44 12.42,-4 12.42,-4l18.27,-6.22s3.98,-1.01 4.89,-0.83c0.91,0.19 10.41,1.67 12.97,1.99 2.56,0.32 6.21,0.38 7.07,0.45 0.86,0.07 8.13,1.83 9.36,2.06 1.24,0.23 7.79,-0.19 8.44,0.04 0.65,0.22 1.56,2.63 0.12,4.55 -1.43,1.92 -8.71,3.78 -10.04,3.88 -1.33,0.1 -5.11,-0.7 -7.04,-0.5 -1.93,0.2 -4.58,0.94 -6.2,1.67" fill="none" stroke="#808083" stroke-width="1.109" stroke-linecap="round"/></g></svg>